<svg id="Layer_1" data-name="Layer 1" xmlns="http://www.w3.org/2000/svg" viewBox="0 0 392 483.33"><defs><style>.cls-1{fill:#eab79a;}.cls-2{fill:#271c16;}.cls-3{fill:#e6a545;}.cls-4{fill:#473529;}.cls-5{fill:#e9a642;}.cls-6{fill:#d68e72;}.cls-7{fill:#e9ae4b;}.cls-8{fill:#493529;}.cls-9{fill:#3d120e;}.cls-10{fill:#d68c66;}.cls-11{fill:#421510;}.cls-12{fill:#d78851;}.cls-13{fill:#d38234;}.cls-14{fill:#2e1e15;}.cls-15{fill:#d68857;}.cls-16{fill:#efab60;}.cls-17{fill:#3e1b16;}.cls-18{fill:#cf8b38;}.cls-19{fill:#4c3123;}.cls-20{fill:#331a13;}.cls-21{fill:#e5a63f;}.cls-22{fill:#8f502c;}.cls-23{fill:#cb8638;}.cls-24{fill:#837872;}.cls-25{fill:#574234;}.cls-26{fill:#2f1f16;}.cls-27{fill:#391812;}.cls-28{fill:#553c2e;}.cls-29{fill:#44150e;}.cls-30{fill:#d1917a;}.cls-31{fill:#cf907b;}.cls-32{fill:#503829;}.cls-33{fill:#43352e;}.cls-34{fill:#4c3527;}.cls-35{fill:#392d27;}.cls-36{fill:#3f1713;}.cls-37{fill:#493327;}.cls-38{fill:#372920;}.cls-39{fill:#3e2c23;}.cls-40{fill:#392b23;}.cls-41{fill:#cb917a;}.cls-42{fill:#4b3224;}.cls-43{fill:#826557;}.cls-44{fill:#785949;}.cls-45{fill:#ca7e31;}.cls-46{fill:#dfa650;}.cls-47{fill:#c57f36;}.cls-48{fill:#2e2019;}.cls-49{fill:#2c1b13;}.cls-50{fill:#d38935;}.cls-51{fill:#662e17;}.cls-52{fill:#a95929;}.cls-53{fill:#431812;}.cls-54{fill:#471614;}.cls-55{fill:#4e2017;}.cls-56{fill:#eba942;}.cls-57{fill:#d0852c;}.cls-58{fill:#86431a;}.cls-59{fill:#2b1f18;}.cls-60{fill:#55221b;}.cls-61{fill:#d19078;}.cls-62{fill:#e6b498;}.cls-63{fill:#cf8b66;}.cls-64{fill:#403630;}.cls-65{fill:#d8a68c;}.cls-66{fill:#dfa753;}.cls-67{fill:#e5ac81;}.cls-68{fill:#ba7b67;}.cls-69{fill:#d28e74;}.cls-70{fill:#532413;}.cls-71{fill:#2e231c;}.cls-72{fill:#ebad4a;}.cls-73{fill:#ebb063;}.cls-74{fill:#513c2f;}.cls-75{fill:#be8140;}.cls-76{fill:#412c20;}.cls-77{fill:#77532f;}.cls-78{fill:#d18549;}.cls-79{fill:#533929;}.cls-80{fill:#6e382e;}.cls-81{fill:#e7b397;}.cls-82{fill:#ca8a71;}.cls-83{fill:#553a29;}.cls-84{fill:#ca9373;}.cls-85{fill:#cf957f;}.cls-86{fill:#ae7562;}.cls-87{fill:#d1927c;}.cls-88{fill:#493931;}.cls-89{fill:#4c3d37;}.cls-90{fill:#725c52;}.cls-91{fill:#511f18;}.cls-92{fill:#aa7a66;}.cls-93{fill:#4f3e34;}.cls-94{fill:#e4ab4c;}.cls-95{fill:#a05c21;}.cls-96{fill:#a66432;}.cls-97{fill:#443328;}.cls-98{fill:#7d473b;}.cls-99{fill:#b27865;}.cls-100{fill:#4e201a;}.cls-101{fill:#945d4e;}.cls-102{fill:#96634c;}.cls-103{fill:#3a2e26;}.cls-104{fill:#d38572;}.cls-105{fill:#403229;}.cls-106{fill:#524138;}.cls-107{fill:#5c4537;}.cls-108{fill:#cc8d77;}.cls-109{fill:#e9b598;}.cls-110{fill:#e0af93;}.cls-111{fill:#3c3028;}.cls-112{fill:#4d3e34;}.cls-113{fill:#3f3124;}.cls-114{fill:#3c2f29;}.cls-115{fill:#4d3e35;}.cls-116{fill:#4e3b33;}.cls-117{fill:#504035;}.cls-118{fill:#653027;}.cls-119{fill:#482f26;}.cls-120{fill:#493b31;}.cls-121{fill:#554432;}.cls-122{fill:#995748;}.cls-123{fill:#644134;}.cls-124{fill:#ad816c;}.cls-125{fill:#594337;}.cls-126{fill:#6b3b30;}.cls-127{fill:#7e5544;}.cls-128{fill:#534032;}.cls-129{fill:#d0977d;}.cls-130{fill:#ce9078;}.cls-131{fill:#562d21;}.cls-132{fill:#f6c8ad;}.cls-133{fill:#5a241e;}.cls-134{fill:#612e26;}.cls-135{fill:#e4dfdf;}.cls-136{fill:#65362f;}.cls-137{fill:#7f6355;}.cls-138{fill:#481c14;}.cls-139{fill:#d99e83;}.cls-140{fill:#58261e;}.cls-141{fill:#6f3a2f;}.cls-142{fill:#5c2c25;}.cls-143{fill:#e9b699;}.cls-144{fill:#53211e;}.cls-145{fill:#e9b698;}.cls-146{fill:#673831;}.cls-147{fill:#69362d;}.cls-148{fill:#975b4b;}.cls-149{fill:#cd8f79;}.cls-150{fill:#f5c9af;}.cls-151{fill:#b48974;}.cls-152{fill:#6e574b;}.cls-153{fill:#7f5e50;}.cls-154{fill:#2e221c;}.cls-155{fill:#59453b;}.cls-156{fill:#967665;}.cls-157{fill:#644f41;}.cls-158{fill:#6a5447;}.cls-159{fill:#705649;}.cls-160{fill:#dc9f83;}.cls-161{fill:#bc8c75;}.cls-162{fill:#7b5b4d;}.cls-163{fill:#7d6457;}.cls-164{fill:#bf9781;}.cls-165{fill:#85695b;}.cls-166{fill:#39281f;}.cls-167{fill:#49231c;}.cls-168{fill:#c47d67;}.cls-169{fill:#e8e4e4;}.cls-170{fill:#d5ccc5;}.cls-171{fill:#ad9e97;}.cls-172{fill:#533625;}.cls-173{fill:#e8e2e2;}.cls-174{fill:#edecef;}</style></defs><path class="cls-1" d="M348.52,460.24s1.81,1,2.21,2.11,1.15,3.17.57,3.74-2.56,1.45-3,.83-.66-6-.66-6Z" transform="translate(-123.08 -172.06)"/><path d="M123.32,451.07c.58-4.91,1-9.16,1.52-13.75,5.59-45.62,24.81-84.4,57.35-116.69,4.93-4.9,9.67-10.07,15.95-13.39,2.89-.92,3.1,1.4,3.09,3-.13,11.3,5.06,21.21,8.09,31.67.37,1.29,1,2.63.54,3.9-1.84,5.46.07,10.5,1.54,15.6a4.27,4.27,0,0,1,.13.48c.66,2.62,1.45,5.4-1.14,7.36s-4.66-.25-6.84-1.29c-6.52-4.1-11.51-2.18-13.51,5.14-2.32,8.51-.24,16.59,3,24.26,4.51,10.7,8.25,21.49,7.28,33.26-.65,7.86,3.48,14.82,3.41,22.57-.11,12.63,1.79,25.11,3.79,37.55.81,5.06,1.85,10.12,4.25,14.73,1,2,2,4,.69,6.11-1.41,2.28-3.7,1.52-5.87,1.38-7-.48-14.1-2.64-21.12.59-3.6,1.65-6.77,3.45-8.39,7.29s-4.59,5.32-8.49,3.71c-9.78-4-20.16-3.29-30.36-4-1.82-.13-3.69,0-5.16-1.39-4.33-11.32-6.3-23.16-8.1-35.08-.75-4.95-1.3-9.61-1.89-14.89C123.08,463.16,123.32,457.07,123.32,451.07Z" transform="translate(-123.08 -172.06)"/><path d="M466.09,328.15c22.2,30,40.7,61.63,46.41,99.28,6.23,41.05,1.43,80.5-17.29,117.9a4.38,4.38,0,0,1-4.74.16c-5.23-3.12-11.41-3.41-16.8-5.93-1.41,1.35-.05,2.58-.17,3.8-.16,1.67-.95,2.64-2.56,2a58.72,58.72,0,0,1-5.83-2.79c-1.1-.6-1.86-1.77-1.12-2.93,2.47-3.87-.7-4.08-3-5.3-11.6-6.06-24.66-7.57-36.78-12-3-1.1-6.22-1-9.37-.88a28.86,28.86,0,0,1-10.74-1.85c-4-1.46-4.89-3.75-2.93-7.34,4.3-7.87,7.4-16.25,10.89-24.47,2.68-7.22,3.79-14.81,5.32-22.29a53.44,53.44,0,0,1,2.2-8.69c2.8-7.18,4.3-14.27,3.36-22.3-1.14-9.66,4.24-18.28,7.5-27.13,1.27-3.42,3.25-6.56,4.82-9.87a33.69,33.69,0,0,0,3.24-11.48c.86-9.95-1.93-12.48-11.56-10.56-1.76.35-3.73,1.35-5.06-.51s0-3.51.87-5.09c1.68-3.08,4.25-5.55,6-8.56.6-1.12,1-2.32,1.63-3.44,3.88-5.08,8.51-9.6,8.83-16.76.15-3.51,4.17-5.2,6.56-7,5.25-4,10.78-8.43,18.29-7A6.84,6.84,0,0,1,466.09,328.15Z" transform="translate(-123.08 -172.06)"/><path class="cls-2" d="M430.92,358.21c-.05,1.1.21,2.29-1,3-4.1,4.13-5.07,4.28-8.78,1.41-1.41-5.4.56-10.54,1.42-15.7,2.76-16.68,2.77-33-4.68-48.66.17-3.52-1.47-6.33-3.36-9.13-5.73-8.44-11.87-16.42-20.71-22a27.33,27.33,0,0,0-8.2-3.47c-6.64-1.68-13-5.15-20.24-3.09-9.08-1.38-17.81-4.49-27-5.33-5.17-1.69-10.38-3.16-15.71-4.36-4.41-1-8.41-1.09-12.43.93-4-2.24-8.51-3.24-12.85-4.65-3.87-2.43-8.28-1.74-12.06-.73s-7.72.53-11.51,1.4a5.2,5.2,0,0,1-6.09-2.53c.95,2.44,2.51,4.94.11,6.93-2,1.67-3.41-1.1-5.33-1.75-.14,3-2.05,4.71-4.53,5.9a8.72,8.72,0,0,0-4.29,4c-2.93,4.29-7.81,6.46-11.15,10.3-1.13.76-2.26,1.5-3.39,2.25-2.53,1.72-5.72.38-8.31,1.81-2.22-.15-4.34-.43-4.36-3.58-2.19,5.28-3.27,11.11-8,15-1.67,1.38-1.13,3.3-.76,5.1a11.89,11.89,0,0,1-2.29,6,27.35,27.35,0,0,0-4,12.62,18.47,18.47,0,0,1-1.67,6.2c-.71,1.48-1.37,3.48-3.29,3.19-1.63-.24-1.94-2.28-1.9-3.68.14-4.9-.63-9.74-.62-14.61,1.59-3.6,3.5-7.14,2-11.28.62-5.44-.43-9.8-5.44-13.38-2-1.42-6.05-5.22-1.37-9A.81.81,0,0,0,199,266c-3.15-1.8-2.81-5.47-4.38-8.11-3.62-6.07-1.23-12,5.43-13.64.65-.15-.15.08.49-.11,8.29-2.39,8.29-2.39,16.39.32a35.21,35.21,0,0,0,4.24,1.43c7.07,1.55,11,7.11,10.38,14.46,2.77-2.86,2.77-2.86,1.18-6.13a6.64,6.64,0,0,1-.62-1.36c-.52-2.27-3.15-4.76-.65-6.8,2.13-1.73,4.38.35,6.25,1.66,2.46,1.72,3.73,1.4,4.38-1.75a16,16,0,0,0-.72-9.28c-.71-1.86-1.66-3.65-1.58-5.73.87-4.8,3.55-9.24,2.24-14.51-.54-2.21,1.24-4.1,3.49-4.88a5.1,5.1,0,0,1,6.21,1.88c1.65,2.27,2.95,4.89,6.16,5.32a5,5,0,0,1,1.58,2c.43-1.76-.47-3.31-.45-4.94,0-1.78.44-3.46,2.37-3.9s2.38,1.31,2.91,2.7c.45,1.2.53,2.58,1.66,3.67a50,50,0,0,0,4.41-6.1c3.95-2.66,4.27.31,4.66,3.06.06.43,0,.67.32.56.11,0,.14-.26.21-.45,1.21-6.19,4.73-10.85,9.44-14.76,2.84,0,3.17,2,2.81,4-.51,2.78.49,5,1.72,7.32,1,2.29.33,4.89,1.1,7.64,2.87-1.92,2.85-4.15,1.83-6.64-1.27-3.1-2.18-6.31-1.54-9.67.34-1.79.38-4.26,3.39-3.63,1.88.4,1.37-1.1,1.33-1.78-.34-6.24,3.53-11.29,4.81-17.08.57-2.55,2.9-5,5.4-.83.5.85,1.35.82,2.19.7,5-.72,9-3.74,13.58-5.51.35-1,.72-1.95,1.85-2.29,3.82-.08,7.62,0,11.42,0,2.9,1.38,1.29,2.76-.14,3.87-1.22.94-2.84.87-4.32.85-2.52,0-4,.87-4.41,3.59-.43,3.19-2.94,5.45-4.1,8.4a31.18,31.18,0,0,0-2.46,13.42A20.22,20.22,0,0,1,314,218.21c6.59-6.8,10.28-15.34,14.65-23.47,4.48-3,8.73.49,13.06.76,1.87.12.4,3.77.86,5.77-.93,3.64-2.35,7.14-1.6,11.12.67,3.55-2.79,5.39-4.11,8.15-3,4-5,8.56-7.16,12.86.71,1.31,1.87,1,2.75,1.32,7.77,2.93,7.74,2.92,10.51-4.73a41.42,41.42,0,0,0,2-7.19,12.52,12.52,0,0,1,4.22-7.76,20.82,20.82,0,0,0,6.92-11.26c.53-1.95.9-5,3.71-4.32,2.41.62,2.17,3.38,1.62,6.07,1.44-3.38,2-6.61,3.46-9.45,1.05-2,2.79-3.77,5.15-3.14,2.76.74,2.21,3.44,1.94,5.5-.57,4.42-3.38,7.92-5.29,11.78a20.05,20.05,0,0,0-2.48,10.51c.5,7.1-.32,14-4.74,19.51.68,1,1.34,1.3,1.64,1,4.74-4.3,12.1-4.62,15.82-10.51,1.2-1.89,2.94-2.66,5.07-1,2,1.5,3.63.56,4.61-1.16,2.7-4.77,7.35-7.32,11.79-9.68,5.82-3.08,11.17-7.27,17.85-8.74a11.33,11.33,0,0,0-10.32,2.68c-4.2,3.94-9.72,5.76-14.13,9.31a2.87,2.87,0,0,1-3.68.35,3.12,3.12,0,0,1-1-3.16,10.1,10.1,0,0,1,1.92-5.08,56.29,56.29,0,0,0,6.54-11.15c1.66-3.77,3.23-4,5.6-.71,1.16,1.59,1.13.08,1.51-.16,5-3.13,10-4.4,15.38-1v-.07c2.05,2,4,4.24,6.86,5.17l3.15,2.77c1.3,4.88,1.3,4.88-6.08,7.54,3.92,2.37,11.4,3,15.27,1.33a1.89,1.89,0,0,1,1.87.27c10.26,7.49,19.42,15.73,20,29.75a13.92,13.92,0,0,1-.58,8.35c-2-4.09-5.11-8-5.35-12.35-.55-10.12-7.73-13.54-15.71-17.51.6,4.36-1.47,6.4-5.21,6.8-3.41.36-6.42-1.33-10.4-2.35,6.05,1.78,10.88,4.43,16.15,5.95a15.47,15.47,0,0,1,7.1,4.5c.91,1,1.81,2.13,1.09,3.56s-2.18,1.45-3.5,1.35c-2.49-.19-4.91-.95-8.13-.6,4,2.11,7.91,3.2,11.24,5.37,1.39.9,3.26,1.86,2.25,3.82-.88,1.72-2.69.88-4,.26-4.54-2.12-9.84-1.3-14.23-4,4.07,4.92,10.66,5.14,15.36,8.8,1.42,1.11,3.23,1.72,4.69,2.84,3.69,2.84,6,6.25,4.28,11.18a9.7,9.7,0,0,0-.15,4.45,4.54,4.54,0,0,1-.56,2.8c-1.94,1.9-3.88.19-6.5-.7,2.86,3.73,6.16,6,6.83,10.08.27,1.66.63,3.44-.75,4.67-1.74,1.57-3.26.17-5.27-1.68,2.42,5.78,4.06,10.76,6.31,15.51.76,1.6,1.94,3.15,1.35,5.13-2.79,3.91-5.86,7.6-6.8,12.59-.44,2.32-2.57,3.87-4.33,5.34a27.35,27.35,0,0,0-9.18,15C434.09,350.87,431.45,354.17,430.92,358.21Z" transform="translate(-123.08 -172.06)"/><path class="cls-3" d="M186.07,602.91A181.29,181.29,0,0,1,143,544.17c1.32-.7,2.25.15,3.07.91,5,4.6,9.73,9.38,13.8,16.34-4.59-8.79-9.67-15.47-17.85-19.23a129.87,129.87,0,0,1-8.53-20.94c4.62-2.22,9.34-.12,14-.31,11.63-.49,22.19,4.37,33.2,6.95,4.26,1.73,8.57,3,13.28,2.15,1.88-.33,3.93-.46,5.46,1.23a111.12,111.12,0,0,0-.36,13.16c.21-3.39-.55-6.84.53-10.18.12-.12.27-.34.36-.32,6,1.63,12.86-.48,18.27,4,.35,8.92.49,17.85,2.5,26.64a51.73,51.73,0,0,0,3.58,10.3c3.69,8,7.22,16,9.52,24.57,2.47,9.23,7.66,17.17,12.49,25.27-3.71,2.56-6.85,5.57-8.47,10a2.12,2.12,0,0,1-2.8,1.43,165.18,165.18,0,0,1-45-29.75c-4.64-8.25-4.85-17.74-7.4-26.58,1.23,6,2.13,12,3.53,17.89C186.59,599.33,187.32,601.18,186.07,602.91Z" transform="translate(-123.08 -172.06)"/><path class="cls-4" d="M418,201.2c-3.92-1.59-7.81-.52-11.7.15a4.55,4.55,0,0,0-3.81,3.45A1.86,1.86,0,0,1,400.1,206c-1.47-.57-.66-1.56-.09-2.35a1.84,1.84,0,0,0-.46-2.65c-.93-.83-1.59.08-1.86.81-2.22,5.9-6.42,10.67-9.16,16.27-.6,1.23-1.1,2.75.17,3.66,1.42,1,2.16-.77,3.25-1.27,7.2-3.3,12.36-10.08,20.25-12,2.22-.54,6.35-1.36,6.81.65.67,2.93-3.29,2.52-5.41,3.41a108,108,0,0,0-18.28,9.75c-3.28,2.21-6.42,4.24-8.38,8-.87,1.67-3.56,4-5.83.4-1.42-2.29-2.42-.73-3.19.64-2,3.49-4.38,5.87-8.86,6.23-1.89.15-3.48,2.88-5.39,4.17s-4,2.59-5.85.53c-1.71-1.87.85-2.77,1.57-4.07,2-3.66,4-7.39,3.54-11.73a32.47,32.47,0,0,1,5.62-22.56c1.26-1.87,2.63-3.95,2.37-6.44-.13-1.34.88-3.43-1.23-3.75a3.53,3.53,0,0,0-3.57,2.31c-1.19,3.25-2.2,6.56-3.15,9.88-.36,1.26-.26,3.13-2,2.71s-1.13-2.33-.74-3.42c.74-2,.9-3.74-.91-5.43-1.69,1.59-1.74,3.65-2.32,5.49-1.19,3.81-2.5,7.47-6.18,9.83a9.64,9.64,0,0,0-4.55,7.46c-.17,4.51-2.63,8.17-3.5,12.39-.8,3.91-5.07,5.05-8,2.48-1.45-1.27-2.55-2.16-4.77-1.48-1.81.55-3.83-.85-2.14-2.77,3.45-3.91,4-9.56,8.12-12.95.7-1,1.52-2,2.82-1.12,1.8,1.19.8,3.11,1.05,4.77-1.91-7.55,5.58-11.55,6.68-18,.18-1.09,1-2.05,1.19-3.22a9.8,9.8,0,0,0-.85-9.47,10.73,10.73,0,0,1-1.32-4.24c-.34-2-.54-4.19,1.72-5.17s4.5-1,5.89,1.47c-.13-1.63-.78-2.59-2.82-2.2-3,.59-5.92-.29-8.86-.68-1.15-.15-2.38-.42-2.78-1.73a2.94,2.94,0,0,1,1.49-3.39c2.91-1.87,5.81-4,9.62-2.46,1.14.47,2.24.59,3.17-.45,9.9.45,19.32,3.8,29.12,4.9.3,0,.53.66.8,1a2.53,2.53,0,0,0-.57,1.36c-.06,1.4,1,3.08-.88,4s-3.21.06-4.61-.94a7.17,7.17,0,0,1-1.36-1.44c-1.54,1.25-1.83,6.42-5.26,1.66-.57-2.11-1.72-3.81-4.1-3.34a5.1,5.1,0,0,0-4,4.53c-.32,2.1.14,4.23.07,7,2.31-1.47,2.36-3.39,2.66-5.2.5-3,1.86-4.18,4.65-2,1.65,1.78,1.1,5,4.37,6.15.83-5.84,4.6-6.69,9.56-5.32a3.19,3.19,0,0,0,2.73-.78c-.49-.46-1.67-.42-1.21-1.61,2.27.55,4.6-1.71,6.06-1.09,2.74,1.16,6.08,2.47,6,6.79-.07,2.81-1.43,7.61,4.95,4.26,2.39-1.25,6.26-.34,9,1.57C413.38,197.53,415.68,199.4,418,201.2Z" transform="translate(-123.08 -172.06)"/><path class="cls-5" d="M488.07,558.46c-9.1,16.86-21.34,31.24-35.2,44.31A158.47,158.47,0,0,1,422,626.13c-.32-5.63,2.85-10.45,3.62-15.89,1.15-8.21,1.22-16.55,3-24.67A9.58,9.58,0,0,1,429,584c-.45-8.2,4.08-12.6,10.43-17.42,11.85-9,24.77-13,39.21-13.67a16.47,16.47,0,0,1,4.61,1.33C485,555.44,488.18,555.06,488.07,558.46Z" transform="translate(-123.08 -172.06)"/><path class="cls-6" d="M291.9,653.37a130,130,0,0,1-31.14-7.09,17.82,17.82,0,0,0-3.14-16.35c-2.6-3.47-3.51-7.81-3.84-12.13-.17-2.29-.23-4.74,2.42-6,4.32,1.39,7.42,4.67,11,7.25,5.74,4.18,11.67,8,18.43,10.33,22.68,8.45,43.36,2.46,63.32-8.74,3-2.35,5.2-6,9.48-6.53,4.26,1.57,5.07,4.92,1.93,8.71s-7.73,5.62-12.25,7.27a28.73,28.73,0,0,0-7.19,3.34c-7.93,5.71-17,8.17-26.55,8.8A31.17,31.17,0,0,0,291.9,653.37Z" transform="translate(-123.08 -172.06)"/><path class="cls-7" d="M420.11,627.28c-16.87,10.79-35.31,17.85-54.64,22.72-4.78,1.2-9.67,2-14.5,2.92-.32-2.81,2.75-3.91,3.19-6.33a9.29,9.29,0,0,1,3.26-3.58c6.81-4.16,11.41-10.56,16.58-16.37,4.27-4.81,9.43-8.79,13.06-14.19a20.62,20.62,0,0,0,4.82-2.44c3.69-2.66,5.76-2.36,8,1.73,2.14,3.89,5.91,5.67,9.08,8.24,1.69,1.37,3.33,1,5-.18,1.95-1.34,4-2.6,6.3-.68C421.06,621.86,420.12,624.56,420.11,627.28Z" transform="translate(-123.08 -172.06)"/><path class="cls-8" d="M452.94,278.23a4.21,4.21,0,0,1-.21-4.66c2.31-4.09.12-7.21-3-9.29-4.93-3.3-9.84-6.83-15.86-8-2.94-.58-4.07-3.76-6.83-4.66-.69-.23-.62-1.11-.05-1.65a2.37,2.37,0,0,1,2.79-.49c4.51,3.21,10.37,2,15,4.7.76.45,1.67,1.3,3,0-4.69-4.35-11.06-5.43-17.11-9.15a19.08,19.08,0,0,1,11,0c1.21.36,2.91.88,3.65-.44.84-1.51-.89-2.32-1.8-3.13a17.46,17.46,0,0,0-7.85-4.09c-6.12-1.36-11-5.66-18.05-6.57,3.87-3.07,5.95.43,8.5.52a16.2,16.2,0,0,1,3.39.69,6.46,6.46,0,0,0,6.5-1.49c2.29-2.24-1.77-3.08-1.39-5,8.55-.71,18.86,7.67,19.26,15.91a13.19,13.19,0,0,0,2.24,7,15.62,15.62,0,0,1,2.62,6.79l.36-7.21c.72,4.07,1.72,8.12,2.11,12.22.69,7.3,5.53,13.18,6.6,20.31.56,3.69,2.39,7.46-.78,10.87-1.43-1.09-1.42-2.95-2.3-4.33-.6-.94-.84-2.31-2.43-2C456.8,286,454.56,282.53,452.94,278.23Z" transform="translate(-123.08 -172.06)"/><path class="cls-9" d="M181.25,529.58c-13.78-4.36-27.62-8.43-42.32-7.87a42.06,42.06,0,0,1-5.46-.47c-.13-.7-.27-1.4-.4-2.11,8.82-.66,17.53,1.24,26.33,1.09,3.89-.07,6.92,3,10.77,3.58,2.55.41,4,0,5.23-2.33A20.13,20.13,0,0,1,198,510.68c3.58.77,7.22.42,10.84,1.28s4-2.31,2.66-4.35c-4.68-7.25-4.86-15.6-6.46-23.61-2.32-11.68-.59-24-3.4-35.27-3.91-15.71.08-32.77-8.55-47.43-3.57-6.05-4.45-12.81-5.47-19.4-.76-4.9,0-10.31,3.61-14.38,4-4.5,8.16-4.49,13-.41a2.53,2.53,0,0,1-1.18.83c-8.76-.41-10.06.65-10.65,8.75-.91,9.22,3.66,17.19,5.77,25.72a13.61,13.61,0,0,0,.85,3.67c.73,1.89,1.48,3.76,2,5.71,1.95,8.93.72,18.16,2.89,28a17.84,17.84,0,0,1,1.12-8.32,15,15,0,0,0,.69-4.89c.14-1.84.34-4.24,2.47-4.3,2.5-.07,2,2.54,2.18,4.22.73,6.71-.78,13.11-3,19.37a10.09,10.09,0,0,0-.88,4.31c0,3.39,0,6.79,0,10.19,0,10.52,2.07,20.79,4,31.07.92,4.73,1.32,9.58,4.12,13.71.36.54.07,2.12,1.3,1.41,4.09-2.34,3.95,1.13,4.58,3.29.83,2.8,3,4.8,4.17,7.34,3.73,7.76,7.73,15.33,7.45,24.46-.12,3.84,2.47,7.52,3,11.5.25,1.77,1.13,3.55-.16,5.27a3.55,3.55,0,0,1-3.2.33c-3-2.08-2.23-5.51-2.95-8.38-.47-1.87-.07-3.89-.7-5.77-2-8.62-3.37-17.42-7.58-25.36-1.08-1.55-2.17-1.15-3.17.06-1.36,1.65-2.66,3.34-4.16,4.86-2.08,1.74-4.61,5.57-6.74,3.62-2.72-2.49,1.41-5,2.81-7.31.74-1.25,2.44-2.32,1.86-3.83-.73-2-2.87-1.32-4.38-1.21-6.41.47-12.86-1.48-19.22.4a14.36,14.36,0,0,0-7.12,4.33c-2.5,2.69-2.53,4.8,1.16,6.3.71.6,1.6,1.2,1.47,2.22S182,529.58,181.25,529.58Z" transform="translate(-123.08 -172.06)"/><path class="cls-10" d="M291.9,653.37c0-1.72.24-3.41,1.82-4.41,6-3.82,11.89-7.65,19.52-8,9.34-.41,18.49-2.34,26.15-8.19,4.5-3.44,10.18-3.92,14.89-6.76a18.23,18.23,0,0,0,5.76-4.66c2.12-2.93,1.13-5.32-2.46-6.42-.26-2,1-3.44,2.17-4.78,6.8-7.51,12.48-15.73,16.17-25.23.53-1.37,1.06-2.83,2.82-3.13,4.42,1.81,6.65-1.39,9.1-4a23.39,23.39,0,0,0,3.27-5.49c.52-1,1.26-2.2,2.52-.58,1.34,5-.32,9.54-1.94,14.11a3.71,3.71,0,0,1-1.12,1.11c-4.69,2.14-7.66,5.56-8.5,10.82a17.62,17.62,0,0,1-5.7,10.28,22.46,22.46,0,0,0-6.17,10.07c-1.42,4.5-4.61,8-7.33,11.78-1.45,2-3.92,2.4-6.31,2.46A19.83,19.83,0,0,0,345.32,636c-9.22,6.62-20.26,8.13-30.68,11.25A118.8,118.8,0,0,0,297,653.92C295.28,654,293.49,654.64,291.9,653.37Z" transform="translate(-123.08 -172.06)"/><path class="cls-11" d="M412.94,488.16a133.27,133.27,0,0,1-10.67,24.28c-1.8,3.22-1.59,5.3,2.41,6.1,2.42.48,4.86,1.59,7.25,1.46,9.18-.47,17.33,3.48,26,5.2,9.67,1.93,18.15,6.57,27.47,9,3,.79,2.89,2.26.85,4.12-2.3,2.09-2.59,3.83,1.17,3.71,2.32-.07,2.61,2.42,4.7,2.78,1.07-2.75-1.53-4.65-1.93-7.77,6.85,2.3,13.25,4.21,19.44,6.66a20.63,20.63,0,0,0,5.62,1.63c-.59,1.32-1.17,2.65-1.75,4-2,1.25-3.84,0-5.66-.63a16.14,16.14,0,0,0-7.3-1.11c-2.34,0-3.42,2.67-5.74,2.69a12.35,12.35,0,0,1-4.45-.24,34.49,34.49,0,0,1-3.52-1.16c-8.68-5.57-17.54-10.88-26-16.8a24,24,0,0,0-10.9-4.66c-9.31-3.82-19.57-2.33-29-5.16a7.91,7.91,0,0,1-2-1c-1.12-.89-2.14-1.31-3.4,0-.84.85-1.92,2.1-3.22.4-.91-2.22-.18-4.31.5-6.41.87-2.72,3.29-4.47,4.41-7,.24-.57.85-1.35,1.49-1,3.92,2.31,3.9-1.12,4.43-3.17,1.14-4.37,3.6-8.05,5.76-11.9,1.09-1.41,1.28-3.58,3.41-4.13Z" transform="translate(-123.08 -172.06)"/><path class="cls-12" d="M297,653.92c2.77-4.88,8.27-5.41,12.63-6.51,8.2-2.06,16-5.45,24.37-6.86,3.21-.55,5.66-2.68,8.33-4.34,4.54-2.83,9.16-5.4,14.82-5.16,2.89.13,4.64-1.52,6.4-3.89,5.48-7.38,7-17.18,14.72-23.24,2.11-1.65,2.25-5,2.86-7.82,1.11-5,3.8-8.69,9.15-9.82a2.46,2.46,0,0,1,0,2.18A16.27,16.27,0,0,0,383.93,603c-5.25,13.92-14.66,25-24.47,35.8a6.31,6.31,0,0,1-2,1.18c-7.16,1-13.09,6-20.31,6.63-9.2.81-17.18,6.24-26.47,6.65a10.84,10.84,0,0,0-4.66,1.69C302.92,655.62,300,654.66,297,653.92Z" transform="translate(-123.08 -172.06)"/><path class="cls-4" d="M329,195.28c-3,10.22-9.57,18.26-16,27.1-1.65-2.91-.38-4.92,1.09-6.47,1.93-2,2.21-4.59,3.26-6.85,2.36-5.07-1-10.41,1.64-15.17,1.92-3.4,4.31-7.48,4.74-10.53,1.09-7.59,5.56-7.35,10.8-7.53,1,0,1.41-1.28,1.45-2.36,3.37-.84,6.78-.34,10.17-.29,1.43.14,2.93,0,4.18.94-4.45.94-9,1.62-12.69,4.61-1,.8-2.37,1.33-2.24,3,.73,1.08,1.8.58,2.74.62,5.86.27,8.6,4.91,5.91,10-.71,1.36-2,2.07-3.31,1.31-1.63-1-2.61-1-4.23.24s-2.09-.58-2.33-1.9c-.3-1.65,1.16-4-1.33-4.76-2.2-.67-3.62,1.26-5.14,2.5-1.26,1-2.74,1.87-3.67,3.6C325.39,194.79,329,190.74,329,195.28Z" transform="translate(-123.08 -172.06)"/><path class="cls-13" d="M306,654.92c1.69-3,4.68-3.43,7.65-3.81,1-.12,2.15.29,3-.1,9.78-4.58,20.91-4.63,30.7-9.14,3.34-1.53,6.62-3.07,10.42-2.81.66,3.16-2,4.17-3.8,5.65-1.51,1.24-3.4,2-5.13,3.14,2.13-.17,3.85-2.26,6.06-.85,0,2.87-2.9,3.76-3.94,5.92C336.08,655.66,321.08,655.78,306,654.92Z" transform="translate(-123.08 -172.06)"/><path class="cls-8" d="M454.9,314.22c-2.6-6.2-5.22-12.4-7.78-18.62-.52-1.27-2.08-2.83-.34-3.94,1.58-1,2.15.87,2.83,1.92.55.85,1.06,1.79,2.29,1.31s1-1.59,1-2.54c-.26-3.93-2.69-6.56-5.36-9.13-1.17-1.12-3.67-2.39-1.92-4.32,1.54-1.69,2.83.6,4.05,1.51a5,5,0,0,0,3.28.83c4.45,1.87,7.46,5.31,6,10-2.49,8.22.16,15.15,3.74,21.73a27.1,27.1,0,0,0-1.05-5.72c-.55-1.95-.5-3.7,2.21-3.86,2.34,6.23,1,12.49.16,18.75-.14.19-.28.39-.41.59a15.37,15.37,0,0,1-9,2.53c-2.74-.18-4.59-1.94-2.05-4.08S451.88,315.7,454.9,314.22Z" transform="translate(-123.08 -172.06)"/><path class="cls-14" d="M329,195.28c-1-2.23-2.09-1.43-3.34-.21-1,1-2.28,1.88-3.31.27a2.72,2.72,0,0,1,.79-3.59c2.13-1.82,4.29-3.62,6.56-5.26,1.54-1.12,3.26-1.56,5.06-.26s1.17,2.83.59,4.42a2.73,2.73,0,0,0,.12,2.82c.8,0,1.15-.53,1.39-1.17.31-.87-.14-2.21,1.08-2.51s1.71.77,2,1.74c.4,1.39,1.2,2,2.57,1.38,1.22-.55.5-1.59.63-2.49.85-6.17-1.34-8.39-7.44-6.31a2,2,0,0,1-2.35-1.43c-.62-1.5.24-2.55,1.29-3.45,4.5-3.88,9.9-5,15.66-5.11l2.7.27c.89,3.34-1.77,1.85-2.51,1.49-3.93-1.9-6.6,1-9.67,2.3a2.94,2.94,0,0,0-1.34,2c-.13.66.67,1.2,1.36,1.05,3.68-.79,7.34,2.79,11.07-.11,1.48-1.15,2,.17,2.07,1.5.06,1.82,0,3.64,0,5.63-1.58-.53-.78-2-1.51-2.78-1.37-1.46-3-1.39-4.61-.9-2,.61-1.51,2.09-1.1,3.67.45,1.73.3,3.55,1.6,5.12,2.56,3.09,1.66,6.55.64,10-.63.74-1.15,1.83-2.38,1.32-2.23-.93-.38-2.92-1-4.3-1.32.09-2.16,1.78-3.66,1-1.87-1.52-.6-3.29-.12-5.68C337.16,198.44,333.39,192.82,329,195.28Z" transform="translate(-123.08 -172.06)"/><path class="cls-15" d="M256.79,612.12c-3,2.5-2,5.79-1.28,8.7a31.69,31.69,0,0,0,5.18,11.55c3.45,4.79,3.19,10.57.07,13.91l-1.7-.48c-4.26-4.28-8.78-8.41-9.13-15.06,3-2.52,3.26-5.1,1.19-8.62s-2.29-7.87-3.07-11.9c-.39-2,.3-4,2.69-4.66C254.07,606.53,256.81,608.06,256.79,612.12Z" transform="translate(-123.08 -172.06)"/><path class="cls-16" d="M250,631.14c2.26,5.36,6.36,9.58,9.08,14.66-8.27-2.59-16.49-5.31-24-9.72,2-1,2.29-3,3.1-4.76,1.53-3.32,3.39-6.42,7.8-6.19C248,626.65,249.85,628.32,250,631.14Z" transform="translate(-123.08 -172.06)"/><path class="cls-17" d="M463.86,303.38c-1.16,1-2.2,1.91-1.07,3.72,1.59,2.55,1.24,5.4.91,8.28-3.32-2.25-8.08-13.68-7.24-17.26.34-1.45.66-2.91,1.11-4.32,1.75-5.43-.86-9.21-4.65-12.56,0-1,0-2,0-3,1.76,2,3.09,4.34,5.69,5.42.6.25,1.11,1,1.69,1,5.29.22,6.15,1.05,6.66,6.72-.33,1.41-.61,2.88-1.79,3.84C462.28,297.56,462.32,300.33,463.86,303.38Z" transform="translate(-123.08 -172.06)"/><path class="cls-18" d="M420.11,627.28c-2.58-2.67-.5-5.45-.17-8.18a6.57,6.57,0,0,1-.13-4.41c4.06-10,4.19-20.73,6.17-31.11a3.24,3.24,0,0,1,.71-1.28c1.31-.8,1.77.08,2,1.12.15.8.09,1.62,1.21,1.64-1.72,10-1.46,20.29-4,30.19-1,3.73-1.8,7.55-3.94,10.88Z" transform="translate(-123.08 -172.06)"/><path class="cls-19" d="M439.09,218.21c-3.14,3.63-6.61,3.66-10.73,1.52-1.6-.83-3.87-.37-5.84-.47-1.35-.07-2.9-.11-3.14-1.73-.27-1.77,1.22-2.76,2.64-3.05a42.25,42.25,0,0,1,6.12-.36c-.39-1.75-1.59-3.43-.11-5.05Z" transform="translate(-123.08 -172.06)"/><path class="cls-20" d="M371,184.28c.73,2.9,2,1.82,2.66.15a19.71,19.71,0,0,0,.79-4.55c1.63.12,1.41,1.14,1.57,1.86a4.12,4.12,0,0,0,4.39,3.29c2.73-.1,0-2.48,1-3.46.46-.45,1-.85,1.49-1.27l2.07,4c.26,1.4,3.17.65,2.33,1.84-.7,1-1.49,4.14-4.7,1.86-1.78-1.26-5.95-2.8-6.57,2.21-.24,1.9-.72,4.63-2.32,4.18s-3.19-3-4.12-4.94c-.33-.71-.12-2.14-.59-3.18C369.13,185.09,369.3,184,371,184.28Z" transform="translate(-123.08 -172.06)"/><path class="cls-21" d="M480.11,546.25c4.84-.68,9,1.67,13.35,3-1.86,3-2.85,6.55-5.39,9.16-1-2.24-3.81-1.68-5.17-3.36a2.79,2.79,0,0,1,2.86-.77c-2-1-4.15-1.49-5.77-2.76C477.84,549.88,477,548,480.11,546.25Z" transform="translate(-123.08 -172.06)"/><path class="cls-22" d="M186.07,602.91a234.18,234.18,0,0,1-4.9-25.78l2-.44q3.42,14.82,6.85,29.64A9.49,9.49,0,0,1,186.07,602.91Z" transform="translate(-123.08 -172.06)"/><path class="cls-23" d="M142,542.19c3-.78,4.79,1.44,6.83,2.85,6.58,4.55,9.63,11.52,12.56,18.62-5.78-6.9-11.19-14-18.41-19.49C142.66,543.51,142.33,542.85,142,542.19Z" transform="translate(-123.08 -172.06)"/><path class="cls-24" d="M346.08,173.18c-3.36,1.15-6.76.77-10.17.29l-12.92,0c-5.44,3.49-10.78,1.78-16.11-.32.81-1,2-.85,3.06-1.12l24.06.09C338,173,342.14,171.86,346.08,173.18Z" transform="translate(-123.08 -172.06)"/><path class="cls-25" d="M424.88,206.3c-4.08.65-5.34-2.43-6.86-5.17A15.16,15.16,0,0,1,424.88,206.3Z" transform="translate(-123.08 -172.06)"/><path class="cls-8" d="M466.09,328.15h-2.16c-3.47-1.68-2.05-3.65-.33-5.64l.42-.39Z" transform="translate(-123.08 -172.06)"/><path class="cls-26" d="M306.88,173.18c5.38-.45,10.71,1.89,16.11.32,0,.94,0,1.88,0,2.82-6.56-.29-12.86,2.33-19.6,1.27-4.82-.75-7.79,2.45-7.88,7.47a24.87,24.87,0,0,1-2.5,11c-1.72,3.45-2.11,7.29-2.48,11.09-.18,1.79,0,3.69-1.5,5.1a6.33,6.33,0,0,1-2.38-7.28c.46-1.68.87-3.32-1.61-3.71-1.72-2.75,1.34-4.93.6-7.66a16,16,0,0,1-4.71,9.66c-3.67,3.68-5,8-4.89,13-.27,1.15.64,2.67-1.15,3.46-1.53-1.55-.63-3.46-.83-5.15-.22-1.88-.5-3.46-3-2.31-1.8-1.84-1.42-4.1-.7-6.07,2.32-6.33,3.32-13.14,7-19.43-2.76-.59-5.39-.59-7.84-2.34s-5,1.07-4.72,3.19c1,8-2.48,14.46-6.36,20.81-2.22,3.64-1.25,7.19-.39,10.83-3.59,1.25-5.14-1.14-6.3-3.76s-3-4-5.83-3a4.2,4.2,0,0,0-2.49,6.09c2.38,5-2.63,8.27-2.38,12.66-1.66.27-2.05-1-2.57-2.12-.51-3.15,1.28-6.4-.38-9.91-2.54,2.52-1.06,6.48-3.74,8.53-2,1-1.81,2.9-2.24,4.63-1.17,4.69-3.72,5.55-7.82,2.68-.59,1.56.4,4.24-2.05,4.4-3,.19-1.59-3.47-3.42-4.88A41.23,41.23,0,0,0,217,245.26c-2.31.27-4.22,0-5.76-1.81-1-1.17-2-1.28-3.72-.55-3.47,1.45-5.9,4.21-10.78,2.93-1.55-.4-3.16,9.09-1.51,10.48a4.79,4.79,0,0,1,1.82,2.82c1.08,5.21,1.11,5.2,5.41,6.86-.06.31,0,.77-.19.89-5.2,3.43-5.86,5.64-.25,9.41,5.76,3.88,6.84,7.64,3.9,13.34-5.59-8.87-11.2-18.07-12.69-28.4-1.8-12.58-9.29-23.91-7.6-37.19.39-3,.75-5.88,2.48-8.45A113.89,113.89,0,0,1,204.93,196a9.25,9.25,0,0,1,3.78-2.32c15.74-3.76,30.61-11.35,47.4-10.53,4.42.21,8-2.07,11.83-4.36a25.62,25.62,0,0,1,16.07-3.4c6.58,1,6.7,1.18,5.94,8.83,1.15-4.57,3.09-8.47,8-9.82C300.93,173.8,303.83,173,306.88,173.18Z" transform="translate(-123.08 -172.06)"/><path class="cls-27" d="M203,367.23l1.23-.12c2,0,3.48,3.47,5.75,1.4s.62-4.6,0-6.95c-1.3-5.18-3.87-10.18-1.37-15.8,1.14-2.57-1.63-4.51-2.2-6.87a123.44,123.44,0,0,0-5.88-18.84c-1.18-2.81-.3-5.92-.5-8.88-.11-1.56.54-3.49-1.9-3.93,2.07-2,3-5,5.78-6.33,4,5.35.55,11.85,3,17.69,3.35-9.5,4.74-19.66,10.08-28.35a3.83,3.83,0,0,1,4.26-3.08c1.76.2,1.34,1.81,1.14,3.07-7.19,11.88-7.82,25.12-7.9,38.46-.1,17.42.45,34.84,0,52.26-.07,2.58.6,5.4-1.75,7.46-2.45.43-2.63-1.42-2.93-3s0-3.32-.78-4.86C208.2,375.57,204.41,371.94,203,367.23Z" transform="translate(-123.08 -172.06)"/><path class="cls-28" d="M298,174.35c-2.92,2.23-5.72,4.42-6.18,8.57a4.39,4.39,0,0,1-4,3.82c2.31-8.58,2.06-9.31-3.82-11.4Z" transform="translate(-123.08 -172.06)"/><path class="cls-9" d="M421.74,363.17c3.2,1.32,5.58-.79,8.18-2-1.31,4.4-5.58,6.93-7.07,11.22-.26.75-1,1.5-.19,2.27a2.09,2.09,0,0,0,2.34.23c14.41-5.63,16.11,3.71,14.51,13.81a32.52,32.52,0,0,1-3.71,10.77c-4.88,8.73-8.18,18.09-11.07,27.63a18.17,18.17,0,0,0-.53,9.82,18,18,0,0,1-.46,11.7c-4.73,11.08-5.88,23-8.82,34.53-.44,1.74-.62,3.6-2,5l-.08,0c-2-2.32-.19-4.79-.28-7.18,2-10.62,2.34-21.6,6.91-31.65.81-4.08,2.32-8.09,1.12-12.35-.53-5,.7-9.72,2.1-14.42,2.43-7.92,4.77-15.89,8.45-23.35a51.36,51.36,0,0,0,4.32-13.71c.06-.72.1-1.44.14-2.16s.05-1.32.05-2c0-1.95-.43-3.71-2.56-4.31s-3.41.76-4.38,2.41a73.67,73.67,0,0,1-5,7.41,15.53,15.53,0,0,0-2.61,8.08,4.44,4.44,0,0,1-1.33,2.93c-2.59,1.21-3-.8-2.92-2.36.8-10.13.09-20.42,2.94-30.35C420.12,364.18,420.52,363.25,421.74,363.17Z" transform="translate(-123.08 -172.06)"/><path class="cls-29" d="M463.6,322.52c.67,1.85-2.2,3.91.33,5.64-7.57-.32-13.51,2.91-18.28,8.53a6.77,6.77,0,0,1-2.85,1.78,4.18,4.18,0,0,0-2.86,4.21c.37,7.15-4.58,11.19-9,15.53-.42-1-1.27-2.06-.76-3.27,2.69-6.43,5.33-12.89,8.23-19.23.55-1.19,2.09-2.06,3.35-2.79,5.67-3.28,5.79-10,9.18-14.65,1.11-1.53,1.62-3.72,4-4-.23.62-.78,1.69-.65,1.79,3.9,2.7,1.47,4.14-1,5.69a2,2,0,0,0-.77,1.6c.17,1.07,1.23.81,2,.93C457.71,324.69,460.35,321.94,463.6,322.52Z" transform="translate(-123.08 -172.06)"/><path class="cls-1" d="M242,270.12c2.69-4.39,7.66-6.22,11-9.82,3.74-2.62,9.09-1.8,12.24-5.71.2-.25.67-.49.88-.36,4.86,2.83,7.42-1,10.95-3.19,2.92-1.81,6.64.41,10,1.15,2.84,1.18,4.84-1.29,7.31-1.71l1.2-.73a4,4,0,0,1,4.65-.44c3.27,1.82,7,1.75,10.53,2.35,4.16-1.16,8.21.19,12.25.71,5.06.65,10.08,1.57,15.19,1.75,9.5-.11,18.25,3.7,27.44,5.24,6.4-.06,12.23,2.46,18.26,4.05,2.56.68,5.11,1.5,6.8,3.79,2.46,4.66,7,7.41,10.32,11.36,9.68,11.56,12,25.2,9.47,39-2.77,15.33-3.92,30.65-4.76,46.08a10,10,0,0,0,1.4,5.74c4.11,6.89,4.62,14.46,4.38,22.19-7.11,2.39-10.87,1.45-14.78-3.69,1-2.21,2.83-1.79,4.63-1.57,1.5.27,3.05,2.19,4.47.69,1.66-1.76.9-3.93-.29-5.84-4.74-5.8-10.77-7.9-18.18-7-13.23,1.65-26.15,5.13-39.42,6.46a24.44,24.44,0,0,0-7.09,2.35,17.3,17.3,0,0,1-8,7.57c-3.06,1.37-4.6,4.55-4.76,7.77-.67,13.74-1.33,27.52.18,41.21.52,4.71,2.38,9.24,2.2,14.17-.4,11.05-7.51,17.72-18.22,16.79-8.64-.75-15.79-10.79-14.29-20.14a42.21,42.21,0,0,1,2.07-8.21c5.18-13.67,4.21-28.11,5.55-42.26.5-5.37-.95-10.23-5.47-13.75-2-1.53-2.33-4-3.24-6.06-.21-.45-.43-.91-.67-1.34-1.06-3-3.93-2-6-2.74-8.78-3-17.44-6.31-26.24-9.23a74.29,74.29,0,0,0-18.54-3.2c-6.33-.43-12.23.41-16.89,5.34a4.55,4.55,0,0,1-4,1.56c-1.66-1-1.74-2.78-1.75-4.43,0-5.81-.58-11.67.91-17.39.92-3.5.06-6.95.1-10.42.13-10.45.56-20.89,0-31.36-.28-5.54,1.85-10.89,4.18-15.8C231.53,283.44,235.31,275.77,242,270.12Z" transform="translate(-123.08 -172.06)"/><path class="cls-30" d="M410.81,392.15a25.3,25.3,0,0,1-.89-8.35,13.74,13.74,0,0,0-1.48-8.22c-7-11.36-2.68-23.4-2.76-35.2-.07-10.2,4.37-19.71,4.25-29.87-.19-15.64-4.89-29.22-18-38.89a4.5,4.5,0,0,1-2-4.28c2-1,3.56.28,5,1.26,10.76,7.35,18.5,17.22,23.88,29,7.77,14.59,7.93,30.08,5.53,45.92-1,6.52-1.73,13.09-2.58,19.63-2.76,10.74-2.8,21.78-3.53,32.74-.08,1.26.22,2,1.57,1,2.51,2.23.87,5.53,2.11,8.09a13.4,13.4,0,0,1,.62,3.84c-.12,3.18-1.38,3.91-3.81,1.53a2.74,2.74,0,0,1,0-1.89c.85,26.3-5.4,52.08-14.41,77.36-.86,2.65-2.71,4.84-3.5,7.52-1.34,3.89-2.58,7.84-5.2,11.13-1.09,1.38-1.86,3.21-4.08,3.15a1.74,1.74,0,0,1-1.19-1.05,30.31,30.31,0,0,1,1.93-16.18c4.61-12.13,8.74-24.42,13-36.66a70.18,70.18,0,0,0,4.26-23.93q-.11-15.48,0-30.95C409.54,396.55,409.06,394.12,410.81,392.15Z" transform="translate(-123.08 -172.06)"/><path class="cls-31" d="M242,270.12c-4.49,7.09-9.59,13.85-12.84,21.62-3.47,8.27-5.6,16.89-3.43,26,.92,3.83-.76,7.61-.5,11.28.85,12.23-1.41,24.3-1.16,36.47,0,1.6-.55,3.36.91,4.7.81,3,2.27,5.87,1.92,9.12-6.93,1.13-7.78,2-8.31,8.45-1.45,17.52-1.29,35.1-2.09,52.65a37.28,37.28,0,0,0,3.07,16,58.78,58.78,0,0,1,3.56,11.9,25.9,25.9,0,0,0,4.6,11.39c2.25,3,2.21,6.49,1,10-2.38,1.73-2.83-.61-3.45-1.84-4.5-9-9.68-17.72-11.26-27.89-2.43-6.85-3.1-14.05-4.25-21.16-.07-8.1-.78-16.17-.89-24.24-.11-7.88,1.1-15.79,2-23.66a4,4,0,0,1,1.36-2.58c1.49-7,.71-14.15,1.06-21.22.86-17.69-1.44-35.39.42-53.11.95-9.05,2.7-17.61,8.33-25,.23-6.3,5.86-8.46,9.36-12.26,1.74-2.84,5.42-2.43,7.6-4.53C239.92,271.43,240.59,270.25,242,270.12Z" transform="translate(-123.08 -172.06)"/><path class="cls-32" d="M258,219.27c-3.32-4.32-2.85-10.78,1.51-15.89a14.43,14.43,0,0,0,3.57-12.71c-.75-3.93.58-6.78,4.52-8.24,1.59-.59,2.54-1.42,3.65,1.15,1.72,4,5.52.5,8.6,1.42-4.67,8.59-8.16,17.49-8.82,27.28.5,3.35-3.19,4.65-3.77,7.7-.31,1.6-2.32.45-2.95-.74a30,30,0,0,1-1.12-3.77c-.37-1,.28-3.18-1.88-2.51-1.48.45-1.51,2.16-1,3.43,1,2.74.74,5.43.49,9.34C258.68,223.21,258.58,221.13,258,219.27Z" transform="translate(-123.08 -172.06)"/><path class="cls-33" d="M217,245.26c-1.1-1.88-.29-11.54,1.08-12.88,1.54-1.5,2.1,0,2.39,1a51.52,51.52,0,0,1,1.06,5.58c3.33-2.17-.32-5,1.11-7.21.43.17,1,.22,1.23.51,1.3,1.5,1.47,4.64,4.46,3.69,2.64-.85,2.9-3.35,2.71-5.8-.16-2.18.93-3,3-2.86,1.71,1.71,1.26,3.91,1.37,6,.13,1.52-.18,3.13,1,4.57.75-1.78.18-3.52.38-5.2.32-1.41-.05-3.29,2.25-3.38l2,2c1.34,5.31,3.94,10.2,2.26,16.25-1.17,4.17-2.83,3.16-5.17,2.07-.87-.4-1.45-1.42-2.32-1.86-1.24-.65-2.64-2.2-4-.93-1.2,1.13.5,2.35.8,3.55a4.07,4.07,0,0,0,.62,1.87c5.48,5.74.38,8.28-4,11.83,1.49-3.92,2.35-7,.18-10.49s-4-6.9-8.93-6.48A4.23,4.23,0,0,1,217,245.26Z" transform="translate(-123.08 -172.06)"/><path class="cls-34" d="M289,212.27c.36-6.94.64-13.86,4.34-20.13,1.5-2.53.53-5.55.63-8.35.17-4.33,2.59-7.35,6.53-7.32a106.42,106.42,0,0,0,17.67-1.14,6.63,6.63,0,0,1,4.79,1c-1.16,1.41-1.83,3.93-4.45,1.59-1-.87-1.91.21-2.48.93-2.62,3.33-6.74,2.95-10.18,3.75-3.61.84-.23-2.67-1.62-3.77a2.5,2.5,0,0,0-2.94,2.4c-.29,6.62-5.75,12-4.37,19a2,2,0,0,1-1.73,2.55c-1.67.07-.75-2-1.84-2.78-2,3.15-1.62,6.35-.7,9.52.5,1.74,1.4,3.37,1.94,5.1.83,2.66-.92,4.36-2.54,6-.54.55-1.68,1.3-2,1.09-1.93-1.22-.77-3.27-1-5A37,37,0,0,1,289,212.27Z" transform="translate(-123.08 -172.06)"/><path class="cls-35" d="M287.07,253.19c-2.46-1-5.18-.34-7.69-1.45s-3.65,1.33-4.47,2.85c-2.08,3.89-5,2.76-7.37,1.13-1.31-.89-1.93-1.32-2.43.12-1.9,5.54-8.52,1.36-11,5.49l-1.07-1c-.37-3.07,2-4.13,4.09-4.84,4-1.39,5.14-3.67,2.86-7.73,2.67-.25,3.41,1.74,4.74,2.7.85.62,1.57,2.17,2.83,1,.91-.83.47-2.19.27-3.33a3.28,3.28,0,0,0-.45-.87c-.73-1.45-3.68-2.79-1.52-4.35,1.46-1.06,2.89,1.59,4,2.94,1.95,2.43,4.92-1.06,6.54,1.52,2-1.34-1-2.41.42-3.63,1.74-.47,2.27,1.36,3.37,2.16a2.47,2.47,0,0,0,2.94.34c4.52-1.78,9.28-3.35,14-.14a4.81,4.81,0,0,0-2.05,5.15h0C292.05,250.69,290.06,254,287.07,253.19Z" transform="translate(-123.08 -172.06)"/><path class="cls-36" d="M418.79,297.62c-3.64-5.09-7.23-10.22-10.92-15.27a45,45,0,0,0-17.95-15c-7.75-3.72-16.13-5.53-24.3-8,20.13-1.42,35,7.7,46.08,23.64C414.78,287.41,419.78,291.14,418.79,297.62Z" transform="translate(-123.08 -172.06)"/><path class="cls-37" d="M307.52,214c.38-4.15-1.18-7.82-2-11.62-1-4.61,3.9-14.33,8.16-15.77,1.31-.44,3.73-.87,2.66,1.71-2.75,6.62-1.21,14.07-4.35,20.56C311,210.92,310.53,213.32,307.52,214Z" transform="translate(-123.08 -172.06)"/><path class="cls-38" d="M342,201.27c.65-.49,1.28-1,2-1.46,1.13-.71,1.8-3,3.47-1.79,1.31,1-.1,2.42-.59,3.56-1.49,3.42.43,2.4,2.15,1.69-2.69,4.41-2.88,9.93-7.29,13.77-2.18,1.89-.11,6.75-3,9.63-1.36-1.75.39-3.12.35-4.63-.06-2.56-1.07-2.84-3.05-1.79,2.38-3.91,4.92-7.62,3.59-12.79C339,205.5,340.39,203.05,342,201.27Z" transform="translate(-123.08 -172.06)"/><path class="cls-39" d="M232.05,277.27c-3.42,3.84-8.11,6.58-10.07,11.68-1.43-1.12-1.43-1.12-4.94,1.3-2.1-.85-1.81-2.58-.63-3.54,5.2-4.24,6.81-10.38,9.09-16.19a4,4,0,0,1,1.84-2c-.36,3.3.74,5.15,3.66,5.73C232.43,274.87,233,275.81,232.05,277.27Z" transform="translate(-123.08 -172.06)"/><path class="cls-40" d="M387.76,237.23a1.36,1.36,0,0,1-.14.47c-3.67,4.38-5.12,7.89,2.93,8.06.71,0,1.29,1.07.92,2a2.16,2.16,0,0,1-2.4,1.34c-5.36-.44-10.29-3-15.78-3-2.21,0-1.57-1.9-1.4-3.39.21-1.91,1.35-3.11,2.9-2.22,5,2.85,7.4-.39,9.88-3.71.63-.84,1.21-1.67,2.37-1.19A1.34,1.34,0,0,1,387.76,237.23Z" transform="translate(-123.08 -172.06)"/><path class="cls-41" d="M338.18,254.12c-5.06,2.43-10,.21-15-.32-4.4-.45-8.79-1-13.18-1.53-.35-.22-.46-.43-.33-.64s.24-.3.37-.3c3-2.93,6.16-3.5,10.31-2.3C326.27,250.77,332.58,251.18,338.18,254.12Z" transform="translate(-123.08 -172.06)"/><path class="cls-42" d="M276,216.28c-2.1-4.23-1-8,1.88-11.33,3.05-3.52,6.37-6.78,6.21-12,0-1.23.62-2.5,2-2.29,1.77.25,1.72,1.58,1.21,3.05-.85,2.48-1.56,5-2.33,7.53C281.73,206.11,277.67,210.48,276,216.28Z" transform="translate(-123.08 -172.06)"/><path class="cls-43" d="M310,251.33a4.21,4.21,0,0,1,0,.94c-3.76.1-7.64.82-10.81-2.12-2-1.82-2.51,1.8-4.19,1.1-.25-1.53-2.91-1.67-2.42-3.15.61-1.81,2.7-1.91,4.47-2,3.82-.22,7,2.75,10.95,2.22C309.49,248.13,308.82,250.64,310,251.33Z" transform="translate(-123.08 -172.06)"/><path class="cls-44" d="M232.05,277.27l-1.05-3c1.83-3.82,5.58-.29,7.94-2.08C237.29,274.73,234,275.1,232.05,277.27Z" transform="translate(-123.08 -172.06)"/><path class="cls-45" d="M250,631.14c-1.34-2-3.61-3.39-4-6-7.22-8.51-11.46-18.46-14.52-29.08-2.34-8.14-6.45-15.61-9.5-23.47a65.46,65.46,0,0,1-4-34.44,3.36,3.36,0,0,1-.45-3.64c2.4-1.8,3.23-.1,3.61,1.82a26.77,26.77,0,0,0,2.9,7.88c2.23,4.06,2.53,4,5.11,0,1.75,4.52.78,9.56,2.76,14,1.38,1,1.32,2.58,1.65,4a117.7,117.7,0,0,0,14.26,35.28c1.62,2.61,3.82,5.07,3.44,8.53-1.56.67-2.6,2-2.1,3.52,1.43,4.34,1.07,9.15,3.68,13.16C255.69,627.18,255.13,628.73,250,631.14Z" transform="translate(-123.08 -172.06)"/><path class="cls-46" d="M218,534.13c0,1.33-.07,2.67-.11,4-3.1-.84-5.85-2.65-9.51-1.22-3,1.17-4.95-3.17-8.17-2.78-1-.74.34-2.49-1.25-3-6-.09-12.07,1.69-17.74-1.56,2.74-1.17-.35-1.59-.31-2.41,4.36-2.25,5.21-7,7.6-10.7.46-.72-1.44-.46-1.64-1.39,8.07-2.72,16.29-.76,24.44-.7,3,0,3.19,1.66,1.44,3.88-2.2,2.8-5,5.22-6.48,9.22,3.23-.68,4.51-3.29,6.67-4.55,2.38,2.17,3.72,5.12,5.73,7.58A3.38,3.38,0,0,1,218,534.13Z" transform="translate(-123.08 -172.06)"/><path class="cls-47" d="M199,531.14c3.21-.16,1.32,1.8,1.24,3q0,5.94,0,11.88C197.25,541.17,197.8,536.17,199,531.14Z" transform="translate(-123.08 -172.06)"/><path class="cls-48" d="M383.09,193c-5.61,7.36-8.63,14.86-11.43,22.35-1.74,4.62-1.14,9.86-.16,14.75.5,2.48-.15,4.4-2.27,4.64-2.64.3-2.14-2.31-2.28-4.05-.94-11.35.86-21.84,9.3-30.33C378.34,198.27,377.94,194.13,383.09,193Z" transform="translate(-123.08 -172.06)"/><path class="cls-49" d="M371,184.28l-2,2c-2.71-1.47-3.24.08-3,2.31.35,3.54-1.78,5.34-5.06,7.63.91-5.67-2.59-11.1,2.87-15.18C367,178.6,370.25,180,371,184.28Z" transform="translate(-123.08 -172.06)"/><path class="cls-50" d="M470,549l4.78.23c3.48-.21,3.13,3,4.24,4.82-11.11-.09-21.42,3.38-31.23,8-5.43,2.56-9.11,8-14.79,10.6-1.74.79-2,2.8-2.07,4.76-.08,2.23.85,4.67-.9,6.69-1.88-1.82-.89-4.54-2.09-6.57-1.71-3-4.67-1.83-7.17-2.2-1.6-.23-3.88,0-4-2.09-.12-2.56,2.4-2.42,4.09-2.41,6.18,0,10.92-2.88,15.71-6.43A79.38,79.38,0,0,1,459,552.92c2.09-.61,4.14-1.39,6.28-1.85C467.11,551.08,468.33,549.57,470,549Z" transform="translate(-123.08 -172.06)"/><path class="cls-51" d="M479,554.08c.07-1.51-5.32-.18-1.79-3.47l-2.45-1.35c2.36,0,2.64-3.68,5.37-3-2.07,2.18-1.73,3.66,1.15,4.76,2.58,1,5.42,1.65,7.37,4.67l-5.73-.58Z" transform="translate(-123.08 -172.06)"/><path class="cls-52" d="M428.9,577.08c2.1,2.09.61,4.73,1.09,7.07a7.09,7.09,0,0,0-.12.91c-2,2.22-2,.69-1.95-1,0-.65-.05-1.3-.09-1.94C426.41,580.05,426.71,578.36,428.9,577.08Z" transform="translate(-123.08 -172.06)"/><path class="cls-53" d="M251.2,606c-8-12.83-14.85-26.14-18.42-41a26.19,26.19,0,0,1-.93-6.86l3.16-.07c2.61,4.41,3.86,9.28,4.78,14.26a32.49,32.49,0,0,0,1.38,3.36c3.62,11.39,10.24,21.1,17.1,30.7,5.47,7.65,13.26,12.39,21.06,17.18,2.42,1.48,5.75,2.3,5.95,6.06l-.41.6c-4.65-.58-8.2-3.58-12-5.83a80.78,80.78,0,0,1-16.1-12.33A22.32,22.32,0,0,0,251.2,606Z" transform="translate(-123.08 -172.06)"/><path class="cls-54" d="M350,621.19c-7.17,6.16-16,8.68-24.85,10.77-13.51,3.19-27.13,5.16-40.3-1.68l.18-.28c2.17-2.33,4.81-1.74,7.43-1.19a56.87,56.87,0,0,0,16.31,1c11.46-.31,22-4.13,32.48-8.33,2.44-1,4.75-2.44,7.56-2C349.65,619.72,350.29,620.15,350,621.19Z" transform="translate(-123.08 -172.06)"/><path class="cls-55" d="M350,621.19,349,620.1c-.57-1.56.44-2.54,1.39-3.42a104.64,104.64,0,0,0,23.09-31.87c2.16-4.53,2.5-9.62,4.93-14,.66-1.18.66-3.52,3.15-2.26,1.29,4.87.08,9.22-2.72,13.25C374.18,594.42,366.3,605,357.58,615Z" transform="translate(-123.08 -172.06)"/><path class="cls-56" d="M428.9,577.08a11.15,11.15,0,0,0-1.07,5c-.95,5.43-2.62,10.85-2.69,16.29-.09,7.45-3.82,13.73-5.2,20.71-1.47.06-3.19-.4-4.24.88-3.4,4.15-6.5,2.4-9.52-.35-2.71-2.47-6.34-3.83-7.67-8-.89-2.78-3.49-3.51-5.79-.8a6.09,6.09,0,0,1-5.73,2.25c-.65-1.88.42-3.36,1.52-4.48,6.61-6.75,9-15.83,13.12-23.9,2.81-5.47,2.81-11.88,3.28-18,.41-5.26.31-10.57,1.61-15.75,7.06-2.87,14.13-5.37,21.67-1.39a11.14,11.14,0,0,1,4.67,4.23c2.83,4.73,6.48,4.88,9.38.38,2-3.18,4.53-4.71,8.32-3.47,1.76.58,3.59.4,5.4.52s3.77.22,3.92,2.76c-9.19,3.34-17.87,7.47-25.48,13.85a17,17,0,0,1-11.88,4.25c-1.65-.1-3.53-.55-5.77,1.25,3.32,1.26,6.1.74,8.75.73C427.67,574.11,429.13,574.51,428.9,577.08Z" transform="translate(-123.08 -172.06)"/><path class="cls-57" d="M407,551.12a192.59,192.59,0,0,1-2.15,28.29,20.33,20.33,0,0,1-2.05,6.55c-4.86,9.29-8.6,19.21-15.78,27.15-1.76,6.15-7.44,9-11.33,13.36-5.56,6.21-10.17,13.43-17.84,17.51-1.15-2.08.72-3.12,1.53-4.53,13.48-13.83,22.53-30.68,32.16-47.14,3.85-5.16,4.5-11.09,4.18-17.26a13.68,13.68,0,0,1,.38-2.39c1-4.36.36-8.78.5-13.16.09-2.91.67-5.5,3.25-7.23,2.53-1.28,2.89,1,3.87,2.44.16-1.88-.42-3.65-.24-5.45a3.34,3.34,0,0,1,1.61-2.36C407.28,547.6,407.52,549.18,407,551.12Z" transform="translate(-123.08 -172.06)"/><path class="cls-58" d="M360.06,640.2q-1.11,1.89-2.24,3.78l-2.91,3c-3,.72-5.67,3-9.5,1.6,4.35-3.18,9.75-4.66,12.37-9.54l1.27-.82A2.36,2.36,0,0,1,360.06,640.2Z" transform="translate(-123.08 -172.06)"/><path class="cls-59" d="M239,573.11c-1.06-5.07-3.78-9.7-4-15-1.6-5-2.63-10.2-4.19-15.25-1.15-3.71,0-8.11-1.71-12.27-2.22-5.53-4.18-11.1-7.76-16a27.17,27.17,0,0,1-2.21-3.86c-.68-1.32,1-3.89-1.44-4.07s-.33,3-2.48,4.08c-7.14-15.87-8.83-32.72-10.15-49.65a9.08,9.08,0,0,1,8.12,7.09c.48,3.89-.45,7.92.83,11.77,1.51,0,1.47-2.58,3.22-1.66,1.41.74,1.51,2.07,1.37,3.45a35.81,35.81,0,0,0-.24,6.46c.12,1.55-.33,3.36,2.09,3.89,1.86.41,1.65,2.28,1.79,3.71.23,2.29.11,4.65,1.52,6.69,1.81.11,1.33-3,3.31-2.3,1.63.56,1.71,2.27,2.41,3.56,4.59,8.57,5.92,18.11,8.17,27.36-.16-1.6-1-4.11,1.09-4.69s3.15,1.92,3.69,3.67c1.68,5.4,1.39,11.21,3.46,16.53-.64,5.35,0,10.85-2,16C241.31,565.7,241,569.8,239,573.11Z" transform="translate(-123.08 -172.06)"/><path class="cls-60" d="M212.17,388.28c-.86,15-2.78,29.94-2.11,45,.09,2-.09,4,1.07,5.74-1.62,3.94-1.59,8.78-6.07,11.16-.15-3.86,1.51-7.47,2.79-10.8,2.13-5.61.27-10.87.8-16.26-3.07,2.53-.08,6.49-2.65,9.05-.11-.12-.33-.24-.33-.36-.07-7.46-3.48-14.18-4.79-21.35-.38-1.83-.44-3.88-2.94-4.25-1.15-.89-.91-2.1-.77-3.29.81-2.51-.56-4.78-.79-7.17a13.47,13.47,0,0,1-.31-2.44c.18-2,.25-4.66,2.39-4.89s2.22,2.47,2.6,4.16c1,4.32,1.34,8.86,4.33,12.45,1.85,2.21,1.28.06,1.37-.85.05-5.5,2.27-10.74,1.85-16.28.14-2.92-.72-6,1.23-8.64C212.78,381.71,209.37,385.8,212.17,388.28Z" transform="translate(-123.08 -172.06)"/><path class="cls-61" d="M208,405.28c-.22,1.15,1.75,2.66-.12,3.35-1.14.42-2.18-.87-3.08-2-3.21-3.86-3.92-8.57-4.9-13.21-.3-1.43-.57-2.86-1.13-5.69-1.23,3.31-1.54,5.19-1.16,7.52s2.19,5.25-.4,7.64c-2.8-8.73-7.28-17.08-6-26.72a1.62,1.62,0,0,1,2-.26,3.21,3.21,0,0,1,.92,1.82c.4,3.32,2.54,0,3.57.91,4.93,2.7,7.67,7.09,9.43,12.24C208,395.66,206.92,400.53,208,405.28Z" transform="translate(-123.08 -172.06)"/><path class="cls-62" d="M193.15,376.27l-2-.08c.32-8.71,3.2-10.9,11.84-9,4.17,2.94,5.44,7.53,6.86,12q0,4.37,0,8.71c-.32,1-.88,1.73-2.11,1.38-1.6-.86-2-2.63-2.85-4C202.06,380.87,198.48,377.47,193.15,376.27Z" transform="translate(-123.08 -172.06)"/><path class="cls-63" d="M218,534.13v-4c-2.08-4.82,0-8.58,3.09-12.07,5,8,6.37,17.11,8,26.15a18.13,18.13,0,0,1-.09,2c-.17,1.21.69,3-.91,3.44a3.51,3.51,0,0,1-3.93-2.28c-1.58-3.54-4.34-6.63-4.16-10.86A2,2,0,0,0,218,534.13Z" transform="translate(-123.08 -172.06)"/><path class="cls-64" d="M205.06,450.18c2.88-3.26,2.33-8.37,6.07-11.16l4,21c.3,3.24.47,6.42-3.09,8.2-.65-4-4.78-4.55-7-7C205.06,457.49,205.06,453.84,205.06,450.18Z" transform="translate(-123.08 -172.06)"/><path class="cls-65" d="M201.93,409.22c.46,3.38.06,6.87,3.61,9.33,1.84,1.27.61,4,.58,6.15l-.12,7.47c-1.25,3.22-.48,6.74-1.77,10.1-4.54-9.92-2.27-20.77-4.24-31-.55-1-.83-2.18.18-2.94C200.93,407.75,201.56,408.47,201.93,409.22Z" transform="translate(-123.08 -172.06)"/><path class="cls-66" d="M186.9,515.08c.85.24,2.19-.4,2.43,1,.52,2.95-5.3,10.55-8.39,11.1-5.23-2.41-5.38-2.84-1.81-7.21C181.14,517.49,183.4,515.26,186.9,515.08Z" transform="translate(-123.08 -172.06)"/><path class="cls-67" d="M221.11,518c-.88,4.07-3.38,7.71-3.09,12.07-3.16-1.34-4.31-4.09-5.05-7.15,1.48-1.9,2.91-3.84,4.45-5.7S220.36,515.45,221.11,518Z" transform="translate(-123.08 -172.06)"/><path class="cls-68" d="M201.93,409.22c-2.58-1.16-1.44,1.22-1.94,2-.68-1.69-1.37-3.37-2.05-5.06.28-.6,0-2.08,1.25-1.32C200.7,405.82,202.15,407.07,201.93,409.22Z" transform="translate(-123.08 -172.06)"/><path class="cls-69" d="M378.8,581.81c.58-4.6,2.49-9,2.39-13.68a8.83,8.83,0,0,1-.24-5.33c1.62-7.2,3.06-14.43,5.27-21.49a3.47,3.47,0,0,1,1.89-1.68,2.58,2.58,0,0,1,2.46.61c4.64,8.58,5.44,17.81,4.5,27.3a4.11,4.11,0,0,1-2.31,3.58,20.61,20.61,0,0,1-8.28,11.59C382.68,583.93,380.06,586,378.8,581.81Z" transform="translate(-123.08 -172.06)"/><path class="cls-11" d="M392.76,571.12c2.74-10.66.51-20.87-2.85-31-1.28-1.59-1.17-3.27-.53-5-.87,1.54.15,3.71-1.44,5l-.88,1.25a7.51,7.51,0,0,1-1.31-7.9,23.43,23.43,0,0,0,1.41-6.25c.21-2.6,1.69-3.46,4.14-2.21,2.2,2.74,1.89,6,2.12,9.23a18.52,18.52,0,0,0,1.11,7.36c4.44,10.2,2.85,20.87,2.54,31.44l-.21,2c-1.33,2.53-1.15,5.41-1.91,8.07-.57,2-.82,4.25-3.1,5.28-1.44-.3-1.69-1.07-.9-2.26C391.2,581.08,393.54,576.29,392.76,571.12Z" transform="translate(-123.08 -172.06)"/><path class="cls-70" d="M391,586.12a2.21,2.21,0,0,0,1,2,5.15,5.15,0,0,1,.07,5c-8.88,16.89-18.39,33.35-31.93,47.07a1.92,1.92,0,0,1-1-2c8.83-11.07,18.06-21.87,24-34.94,2.41-5,4-10.39,6.88-15.18.13-.61.25-1.23.38-1.84Z" transform="translate(-123.08 -172.06)"/><path class="cls-71" d="M390.86,525.14c-1.09.11-3-.07-2.63,1.36,1.33,5.16-3.56,9.73-1.17,14.88q-2.94,13.36-5.87,26.75c-1,2-2.55,3.88-3,6-3.21,15.45-12.8,27.25-22.07,39.25-2,2.64-5.68,3.53-7.17,6.73-9.75,3.15-19,7.78-29.18,9.73a48.7,48.7,0,0,1-10.8,1.25c-2.94-1.09-6.32-1.76-5.41-6.26a1.77,1.77,0,0,0-1.7-2.1c-4.59-.14-5.81-3.7-7.54-6.93-1-1.89-1.71-4-3.15-5.64s-3.12-2.79-4.23.51c-1.23,3.67-3.42,2.83-5.75,1.05a11,11,0,0,1-3-4.49,64.78,64.78,0,0,0-7.44-13c1.3,4,1.48,8.24,2.87,12.23.57,1.62.56,3.45-1.52,4.16a2.62,2.62,0,0,1-3.58-1.84c-1.22-7-6.54-12.81-6.18-20.33.19-3.8-.37-7.67-.26-11.39.26-7.88-1.92-15-4.68-22.13-.64-1.64-.63-3.85-3.13-3.86a2.23,2.23,0,0,0-2.37,2.14c-.08,2.25.42,4.84,2.91,5.12,4.35.49,5,3.9,6.38,6.8a2,2,0,0,1-.57,2.66,21,21,0,0,0-6.64,10.7,5,5,0,0,1-5.34,4.26c-1.93,0-2.56-1.29-1.71-3.13,2.19-1.56,2.74-3.51,1.71-6.05-3.12-7.64-1.51-15.82-2.54-23.72-.4-3.08,1.44-5.74,4.34-7.32,3.24-3.26,3.27-3.28,5.21,1,.62,1.36,2.46.85,3,2.17,2.1,5.2,5.84,9.32,9.08,13.77.48.8.95,1.59,1.39,2.42,1.51,4.13,6.25,5.89,7.49,10.27.32,1.15,1.45,1.18,2.45.42a2.22,2.22,0,0,1,2.32-.4c2.3,1,2.79,3.36,3.89,5.25,2.38-2.58,4-1.31,5.34,1.11.22.42.24.6.51.14a5,5,0,0,0,.33-.95c3.57-7.64,8.75-8.2,15-1.59,1.15,1.22,1.61,3.08,4.23,1.83,1.58-.76,2.32.48,3.77,5.34a16,16,0,0,0-2-5.52c-.72-1.45-.62-3.06.89-4s2.88-.21,4,.9c1.78,1.7,2.19,4,3.11,6.31-.22-3.59,1.24-6.86,1.65-10.35s1.83-3.87,4.58-1.67c1,.83,1.83,1.93,2.93,2.69,1.83,1.27,3.34,2.39,5.54.07,2.5-2.64,3.58,0,4.89,2.41.8-3,.61-5.75,1.42-8.32,1-3.08,2.53-4.68,5.82-2.76a4.5,4.5,0,0,1,.66,2.81c-1.53,4.47.7,8.85.45,13.11-.48.75.93.17.26.15-.34,0-.26-.13-.13-.49.46-1.22,1.23-2.08,2.57-1.85,1.66.29,1.86,1.79,2,3.09.55,6.28,3.22,12.42.83,18.9a9.42,9.42,0,0,1,.66-4.35,7.82,7.82,0,0,0,.21-7.06c-1.33-3.41.54-6.81,1.81-10a3.12,3.12,0,0,1,3.8-1.69,3.28,3.28,0,0,1,2.44,2.87,13.64,13.64,0,0,1,0,3.06A9.64,9.64,0,0,0,361,573c-2.14-2.85-2.48-6.49-2.22-10,.22-3,1-5.89.56-8.92a2.38,2.38,0,0,1,1.59-2.8c1.49-.46,2.12.86,2.56,1.83,2.45,5.3,4.82,10.65,2.79,16.77,2.73-8.43-.24-14.83-6.34-20.72-4.35-4.2-6.62-9.9-7.22-16.07-.16-1.63.18-3.35-.73-4.86-1.82-2.46-2.13-5.82-4.7-7.82a7.16,7.16,0,0,1-2.55-2.15c-.68-1.17-2.87-1.75-1.91-3.51.86-1.58,2.29-.18,3.47-.08a10.1,10.1,0,0,0-6-1.12c-4.16.19-8.2.06-10.95-3.77-1.11-1.49-3-1.1-4.41-1.81-2.2-1.1-1.42-2.26.11-3.54-3.27,1-6.5,2-9.64-.13-2.06-3.09-7-2.87-8.2-7a10.85,10.85,0,0,0-.09,2.21c-.29,2.44-1.09,5.11-3.8,4.95-3.15-.18-.12-3.29-1.45-4.73,0,4.17-1.48,7.42-5.28,9.37a3.13,3.13,0,0,1-1.15.69c-2.12-.27-3.76.82-5.38,2a5,5,0,0,1-1.34.32c-4.78-1.29-7.77,1.78-10.89,4.51-.45.5-.9,1-1.32,1.52-2.2,2.46-4.71,4.68-6.08,7.81-1.15,1.3-1.29,2.95-1.53,4.56-.77,5.27-.77,5.26-6.07,4a8.25,8.25,0,0,1-2.78-.86c-.49-.44-.64-1.35-1.07-1.55-5.24-2.36-3-6-1.78-9.53,1.72-4,1.29-8,.27-12a11.91,11.91,0,0,1,.56-8.57,3.76,3.76,0,0,1,1-1.1c2.24-.23,4.6.06,6.39-1.94.6-.67,2.33-1.58,3.24-.73s-.21,2.17-.69,3c-1.52,2.75-2.82,5.52-1.79,9.1,2.57-3,1-7.58,4.5-9.81,2.2-.62,4.16-.62,5.17,1.95,0,.08.3.13.42.09s.19-.23.29-.4c3-5.53,3.09-5.56,11.25-3.47,1.84-1.68,4.69-.5,6.47-2.41-1.21-.56-3.16.07-3.6-1.78s.89-2.82,2.17-3.58a10.59,10.59,0,0,0,5.44-7.37c3-4.72,7-2.62,10.88-1.72,3.4,2.19,7.46,2.38,11.22,3.35,1.65.43,1.4-2.93,3-3.79,3.22-2,4.43,1.76,6.75,2.35,1.92,2.68,2.32,5.66,2.18,8.91-.08,1.84-1,5.25,3.32,3.27,1.66-.76,2.8.78,3.51,2.09,2.3,4.2,6.22,5.55,10.48,5.31,4.62-.25,7.75,1.13,8.9,4.9a4.45,4.45,0,0,1-.32-3.31c3.37-4,5.27-4.09,6.89.49,1.88,5.35,4.42,10.79,2.44,16.8-.47,1.42-.3,2.67,1.63,2.82a12.17,12.17,0,0,1,2.67,4.28c.55,1.89,1.59,3.75.48,5.77-1.7.53-2.42,1.29-2.41,3.47,0,5.38,2.92,10.18,2.69,15.55.37-3.36.8-6.65,2.93-9.44.19-.43.4-.84.61-1.27.65-8.61,5.83-15.63,8.31-23.6,2.89-2.12,5-5.85,9.53-4.58-.6,2.29-1.33,4.57-1,7C393.39,524,392.37,524.73,390.86,525.14Z" transform="translate(-123.08 -172.06)"/><path class="cls-72" d="M407,551.12c-.64-1.35-1.27-2.71-1.91-4.07-2.26-2.31-5-4.4-4-8.29,5.55-1.23,9.74-6.52,16.1-5.36a10,10,0,0,0,3.95-.26c4.23-.93,7.78-2.79,9.78-6.87,9.52,1.88,15.94,9.3,24.12,13.61,4.23,2.23,8,5.31,12,8,.78,1.71,0,3-1.13,4.17l-6,2c-3.86-3.2-8.8-.86-13.1-2.47-1.39-.52-3.48,2.14-3.88,4.52-.43,2.56-2.78,3.62-4.38,2.78-2.19-1.14-6.12,1.14-6.69-3.48-.37-3-8.38-8-11.26-6.85C416.13,550.38,411.35,549.54,407,551.12Z" transform="translate(-123.08 -172.06)"/><path class="cls-73" d="M430.92,526.27c-.45,5.14-6.75,9.25-13.18,8.69-3.71-.33-7.4-.77-10.13,2.85-1.64,2.18-4.29,1.11-6.52,1.3a2.16,2.16,0,0,1-1.75-1.15c-1.1-3-1.47-6.56-.62-9.14s0-5.4,1.3-7.81C410.2,523.44,421.06,521.93,430.92,526.27Z" transform="translate(-123.08 -172.06)"/><path class="cls-74" d="M394,515.18c-3.7.38-5.7,3.78-8.92,5-2.58,1.41-3,6.17-7.37,4.81-1.46-3.33,2.82-4.71,2.59-7.63a2.35,2.35,0,0,1,.57-.78c1.26-1,2.5-1.62,3.5.32a13,13,0,0,1,1-2.92,15.27,15.27,0,0,1,2.94-3.22c1.59-.84,2.46-2.41,3.66-3.64,3.79-4,5.68-9.16,8-14.06,1.28,1.18,2.48,2.08,4.07.28a10.85,10.85,0,0,1,4.35-3.1c1.79-.63,2.48.06,1.62,1.89-2.38,4.85-5.32,9.43-6.5,14.83-.29,1.33-.35,3.26-2.08,3.67-2,.48-1-2.7-3.16-2.71C398.54,511.33,394.74,512.3,394,515.18Z" transform="translate(-123.08 -172.06)"/><path class="cls-75" d="M400,521c-.52,3,3.55,3.46,3.56,6.26-1.57,1.79-2.32-1.46-3.59-.66V538.1c-.32.74-.86,1.37-1.11,2.14-.09,2.58.93,4.87,1.68,7.24.47,1.5,1.76,3,.38,4.64-3,2.67-3,6.19-3.06,9.86s1.07,7.51-.81,11.07c.58-11.47,0-22.74-4.75-33.49-.67-1.54-.21-3.58-.27-5.38-.08-4.86,3.86-8.37,4.4-13.06.16-1.34,1.17-2,2.53-1Z" transform="translate(-123.08 -172.06)"/><path class="cls-76" d="M410,492.16c-2.85-1.66-3.84,1.32-5.53,2.35-1,.6-1.15,2.61-2.8,2.22-1.84-.44-1.57-2.21-1.71-3.64-.38-2.93,2.08-4.61,3.06-6.95,2.4-2.19,3-5.31,4.31-8.08.88-1.84,1-4.21,3.3-5.15,3.8,1.66,1,6,3.34,8.25q-.53,3.48-1.06,7C410.87,488.73,411.36,491.13,410,492.16Z" transform="translate(-123.08 -172.06)"/><path class="cls-77" d="M399,520.1c-.76.19-1.76.16-1.68,1.32.05.63.69,1.42.47,1.84-1.83,3.68-3.8,7.29-5.73,10.92-.39-3-.78-6-1.18-9l2.11-3C395.31,522.46,395,515.07,399,520.1Z" transform="translate(-123.08 -172.06)"/><path class="cls-5" d="M465.9,552.05a7.41,7.41,0,0,1,1.13-4.17L470,549C469.24,550.89,468.32,552.48,465.9,552.05Z" transform="translate(-123.08 -172.06)"/><path class="cls-78" d="M389.91,588.12C389,593.8,387.09,599,383,603.3,382.32,596.87,383.42,591.27,389.91,588.12Z" transform="translate(-123.08 -172.06)"/><path class="cls-2" d="M239,229.24c-1.46,1-.86,2.64-1.05,4-1.12,1.06-2.2,2.28-3.92,1l0-7c1.71-2.4.3-5.59,2-8,.73-1,1.25-2.63,2.82-2.21,1.3.34,1.14,1.82,1.18,3A24,24,0,0,1,239,229.24Z" transform="translate(-123.08 -172.06)"/><path class="cls-79" d="M282.72,189.16c-1.71-4.07,1.11-6.52,1.67-9.44a1,1,0,0,1,1.55-.68,2.21,2.21,0,0,1,1,2.13C286.79,184.39,284.4,186.26,282.72,189.16Z" transform="translate(-123.08 -172.06)"/><path class="cls-80" d="M419.1,410c1,.62,2.47,2.31,2.2-.51a21.74,21.74,0,0,1-.46-4.28,21.31,21.31,0,0,1,3-12.47,23.87,23.87,0,0,1,8.3-8.92c1.54-1,3.06-2.16,4.85-.47,0,.64-.05,1.29-.07,1.94-2.67,2.45-4.33,5.13-4,9.13.24,3.16-1.81,5.92-3.63,8.52-3.32,4.73-4.37,10.37-6.2,15.69a3.37,3.37,0,0,0,.93,3.67c-.77,5-2.62,9.89-2.22,15.1-3.74-1.93-.58-4.71-1.1-7-.91.41.75,3.73-2.25,2.34C417.87,425.11,418.57,417.53,419.1,410Z" transform="translate(-123.08 -172.06)"/><path class="cls-81" d="M437,383.3c-6.08.75-8.71,5.83-12.24,9.78-.94.16-1.33-.47-1.67-1.17a9.7,9.7,0,0,1-.28-5.86c1.52-2.14,3.19-4.19,4.54-6.43,1.46-2.44,2.5-5.32,6.23-4S437.73,379.9,437,383.3Z" transform="translate(-123.08 -172.06)"/><path class="cls-82" d="M424,422.25c-2.3.12-3.77-.53-2.6-3.16,2.81-6.28,3.31-13.52,8.36-18.92,1.46-1.56,2.74-4,2-6.46-1.44-4.84,1.32-6.94,5.16-8.47C434.5,398.24,427.21,409.54,424,422.25Z" transform="translate(-123.08 -172.06)"/><path class="cls-83" d="M413.92,481.16c-1.33.5-2.94,1-2.26-1.33s-.38-4.47-.73-6.68c-1.67-3.27.41-6.11,1.12-9.08A102.13,102.13,0,0,1,416,450.71c1.35-1.41,3.11-1.58,4.93-1.56.69,2.58-1.3,4.43-2.16,6.4C415.15,463.77,416.25,472.77,413.92,481.16Z" transform="translate(-123.08 -172.06)"/><path class="cls-84" d="M420.89,449.15c-1,1.52-2.38,1.49-3.88,1-2.16-5.93-.6-11.41,2-16.76,1.08-.8.1-2.58,1.57-3.33,1.32,2.35-.76,5.16,1.13,7.33C423.52,441.43,421.48,445.24,420.89,449.15Z" transform="translate(-123.08 -172.06)"/><path class="cls-85" d="M423.87,392.16l.86.92-3.89,12.08c-1.9-2.57-.36-5.57-1.06-8.29.06-.89.13-1.78.2-2.67C420.8,392.62,422.92,393.5,423.87,392.16Z" transform="translate(-123.08 -172.06)"/><path class="cls-86" d="M423.87,392.16c-.83,1.57-2.62,1.32-3.89,2,.37-2.91.68-5.84,2.8-8.15C423.34,388.05,424.28,390,423.87,392.16Z" transform="translate(-123.08 -172.06)"/><path class="cls-1" d="M388.88,511.07c-1.19,2.5-3.65,4.29-4,7.86-1.23-1.25-1.79-4-3.82-1.73-3,6.64-7.31,8.66-12.9,6-.1-7-.12-14-2.74-20.71a8.66,8.66,0,0,0-4.11-5.27c-1.57-.89-3.45-1.23-4.7-2.67a5,5,0,0,0-4.69-2.91,8.66,8.66,0,0,1-1.79-1c-4.16-2.29-9.19-2.08-13.26-4.68-1.08-.68-2.52-.77-3.48-1.78-2.37-5.29-1.91-6.37,3.66-8.77,5.37-1.32,7.38-6.66,11.41-9.59,2,.32,2.73-.22,2-2.4-1.53-4.31-4.56-7.66-7-11.37-6.39-9.75-10.39-20.27-10.73-32-.06-1.83-.22-3.63-.46-5.44-.77-5.88.57-7.41,6.59-7.66,1.16-.05,2.32,0,3.48-.05,5.73-.55,10.91,1.93,16.34,2.94,6.36.88,12.73,2,19.09.1,1.14-.34,2.8,0,3-1.94,1.13-2.35,4.24-2,5.53-4.14,1.91-.84,2.39,2.6,4.41,1.45,3.83,1.7,4.37,3.77,1.41,7a25.3,25.3,0,0,1-17.1,8.19c-8.81.69-17.11-1.58-25.25-4.59-1.79-.66-3.44-1.78-6.07-1.48,9,8.29,19.22,12.12,30.75,11.31,10.08-.72,16.59-6.95,20.42-16,2-4.8-.22-8.28-6.76-11.2A63.67,63.67,0,0,1,381.8,396a9.6,9.6,0,0,1-3-2.43c-2.74-3.62-.95-5.34,2.64-6.31,3.59-.71,7.27-.29,10.87-.88a4,4,0,0,1,4.35,1.71c1.09.23,2.57-.17,3,1.22.93,3,2.28,2.94,4.71,1.39s4.34.62,6.42,1.49c0,14.47.43,29,0,43.43-.35,11.21-5.41,21.38-8.7,31.93-3.22,10.37-8.4,20.08-10.33,30.85-.52,2.86-.61,5.8-.89,8.71A5.58,5.58,0,0,1,388.88,511.07Z" transform="translate(-123.08 -172.06)"/><path class="cls-87" d="M275.26,454c.65-1,1.33-2,2-2.92" transform="translate(-123.08 -172.06)"/><path class="cls-87" d="M276.08,459.08a10.63,10.63,0,0,1,0-5.08l1.18-2.92a43.71,43.71,0,0,1,6-6.63c7-6.16,9.33-14.24,12.33-22.25a17.67,17.67,0,0,0,.58-2.93c1.73-8.93,1.4-9.68-6.26-14.64a17.4,17.4,0,0,0-10-9.56c-7.25-4.2-15.09-4.72-23.16-3.66-3.86-.12-7.34,1.46-10.94,2.49-2.63.77-3.52,2.57-2.74,5.21-4.56,1.65-8.6,0-9.75-4-1.08-3.72,1.07-6.27,6.18-7.33-.06,1.81.44,1.78,2,1,8.6-4.14,29.08-4.44,38.88,1.62-2.05-1.93-5.12-2.15-7.93-3.05-1.33-.42-3.12,0-3.69-1.91a16.87,16.87,0,0,1,3.5-3.85,8,8,0,0,1,4.65-.5c2.87.67,5.86.72,8.73,1.38,4.74,1.1,8.74.32,11.34-4.24a45.24,45.24,0,0,0,7.22,10.15c4.19,4.66,3.1,11.07,2.71,16.8-.66,9.73-1.59,19.46-3,29.1-.74,5-2.92,9.77-4.29,14.69-1.77,6.4.58,11.46,4.82,16.31,4.4,5,10.13,4.85,15.19,3.51,4.81-1.28,8.17-5.9,9.14-11,.7-3.69,1.21-8.08-.14-11.36-3-7.27-3-14.67-2.48-22.08.52-7-.43-13.85-.2-20.77.24-7.44,1.66-14.06,10.12-16.2,3.4-.87.55-5.46,4-6.1,2.38,6.8,3.34,7.76,11.12,7.41,7.61-.34,15.23-.75,22.83-1.42,2.43-.22,5-1.05,7,1.07-3.44,1-2.59,3-1.22,5.17-2.21,1.19-4.46.57-6.76.27-8.68-1.14-17.28-1.39-24.71,2.86,10.57-5.44,22.08-3.66,33.61-1.41a16.55,16.55,0,0,1,6,1.92c.85,1.12.43,1.94-.61,2.62-7.21-.65-14.23-2.8-21.58-2.5-8.92.37-16.69,3.24-23,9.7a5.1,5.1,0,0,1-.76,1.24l-3,0c-6.19.05-5.71.5-5.51,6.63a82.08,82.08,0,0,0,6.23,28.37c2,4.9,5.58,8.56,8.09,13,1.27,2.24,2.14,5.26,1.43,7.9-.58,2.15-.67,2.46-2.3,1.44s1.32,1.37,1,.61c-1.76-1.94-1.13-4.67-2.23-6.76-.79-1.49-.67-4.81-4.06-3-4.81-.25-6.39,1.16-5.17,4.64a3.08,3.08,0,0,0,3.29,2.4c1.93-.19,1.58-1.71,1.43-3s-.6-2.93.61-4.18c3.1-.53,3.48,2,3.95,3.89,1.24,4.89-.2,9.06-4,12.47-1.3,1.17-3.31,1.63-3.81,3.64-4.32,1.1-6.3,3.4-4,7.87a2.32,2.32,0,0,1-2.6.7,2.77,2.77,0,0,1-1.09-.89c-2.06-2.87-6.89-2.11-8.07-6.15,2.31-5.54,7.22-7.26,12.06-8.52-3.92.38-7.21,2.75-10.47,5.38-6.53,5.25-12.27,5.09-18.86-.24-4.64-3.75-9-8.11-15.87-6.7-6.79.13-9.48-3.5-7.93-10.71A16.9,16.9,0,0,1,283,452.9a6.67,6.67,0,0,1,1.86-2.42,5.74,5.74,0,0,0-1.59,1.63c-2.12,2.6-2,5.8-2.43,8.83-.18,1.17-.48,2.13-1.62,2.44" transform="translate(-123.08 -172.06)"/><path class="cls-88" d="M297,378.22c-.22,4.13-2,6.19-6.53,5.84s-9.12-.48-13.49-2c-11.21-2.69-22.33-6.22-34.11-3.8-4.75.73-9.55,0-14.32.53a2.2,2.2,0,0,1-1.53-.63c-3.35-2-2.46-5-2.06-7.94,8.48-10.18,19.75-9,30.75-6.86,12.25,2.34,23.77,7.28,35.35,11.86,1.65,1.64,4.79.35,5.93,3Z" transform="translate(-123.08 -172.06)"/><path class="cls-89" d="M381,388.3c-10.26.62-20.52,1.26-30.78,1.85a18.89,18.89,0,0,1-4-.09c-6.59-1-7.41-2.21-6.23-8.82,15.77-3.77,31.85-5.77,47.79-8.55,7.24-1.27,16.84,2.73,19.15,8.48-.6,3-2.06,5.33-5.21,6.21-1.69.17-3.49-.37-5.06.68C391.44,387.18,386.23,388.05,381,388.3Z" transform="translate(-123.08 -172.06)"/><path class="cls-90" d="M401.75,387.38c.6-.54,1.73-1.11,1.7-1.61-.15-2.65,1.54-3.69,3.51-4.6,1.9,1.79,1.42,4.35.79,6C406.24,391.21,403.83,389,401.75,387.38Z" transform="translate(-123.08 -172.06)"/><path class="cls-43" d="M287.07,253.19c2.7-.41,4.67-3.79,7.92-1.94C292.27,251.59,290.32,255.06,287.07,253.19Z" transform="translate(-123.08 -172.06)"/><path class="cls-87" d="M297,378.18c-1.69-1.56-4.84-.25-5.93-3C293.38,375.48,296.54,374.15,297,378.18Z" transform="translate(-123.08 -172.06)"/><path class="cls-91" d="M419.05,433.35l-2,16.76q-3,11.52-6.08,23c-1.22,2.77-2.35,5.59-3.71,8.3-1,1.91-1.27,4.55-4.25,4.69a287,287,0,0,0,10.14-36.34,184.62,184.62,0,0,0,4.57-39.87c0-1.57-.29-3.23.7-4.8,1.24,1.54.55,3.24.72,4.82C421.27,417.75,418.57,425.55,419.05,433.35Z" transform="translate(-123.08 -172.06)"/><path class="cls-92" d="M388.88,511.07a4,4,0,0,1,2-4l1.06.07C391.89,509.21,391.66,511.14,388.88,511.07Z" transform="translate(-123.08 -172.06)"/><path class="cls-1" d="M279,461.21a6,6,0,0,0,1.11,2.35c2.47,1.56,4,4.23,6.71,5.51a68.7,68.7,0,0,0,7.26,8.18c2.12,2.14,2.37,4.29,0,6.44a7,7,0,0,1-1.14.89c-2.42,1.87-5.26,2.24-8.19,2.27-2.86.32-4.73,2.71-7.34,3.56-4.65,3-10.95,3.31-14,8.91-.85,1.57-2.76,1.55-4.29,2v0c-1.56,3.18-1.38,6.59-1.43,10,0,2.73.18,5.56-1.29,8.09s-3.25,4.78-6.4,5.34c-2.87,1-4.75-.42-6.27-2.64-1.47-1.79-1.73-4.28-3.41-6a13.75,13.75,0,0,1-3.2-5.32c-.62-2.54-2.78-4.19-3.79-6.51-1.37-2.82-2.81-5.59-4.35-8.32-.93-1.63-2.36-3.36-.79-5.43.33-4.67.31-8.93-3.52-12.8-3.22-3.25-1.9-8.59-3.66-12.7-4.83-11.31-7.12-23.09-5.64-35.31,1.72-14.19-.07-28.5,1.94-42.65a24.57,24.57,0,0,1,1-4.83c1.14-3.25,2.73-5.93,6.82-3.37a1.34,1.34,0,0,0,2.09-.5.92.92,0,0,1,.74-.07c6.59-.75,13-1.12,18.64,3.61,2.09,1.77,2.9,3.07.52,5-2.2.88-4.2,2.63-6.85,1.55-2.92,1.45-7.49,1.88-5.43,6.9,1.51,3.7,4.55,4.91,8.4,3.13,2.06-1.73,3.62-.28,5.17.85a38.88,38.88,0,0,0,8.86,5.05c6,2.54,12.08.47,18.12.61,3.08-.59,6.2-.9,9.27-1.56,2-.42,4-.49,5.62,1,5.65,1.2,8.46,5.34,8.08,10.56-.71,9.73-4.52,18.42-9.57,26.32-2.5,3.9-6.9,6.77-9.9,10.72-.91,1.18-.64,2.39-.93,3.95" transform="translate(-123.08 -172.06)"/><path class="cls-93" d="M238,510.15c.35,2.08,2,3.43,3,5.13.94,2,1,4.48,3.27,5.73,1.7.48,1.7,4.65,4.75,2.2,1.64,1.79,1.92,4.15,2.68,6.32-2.48,4-4,8.29-3.29,13.11-.75,1.53,0,4.47-3.34,3.52-3.18-3.55-1.76-8.21-2.9-12.26-.65-2.32-.94-4.67-3.19-7.43-.55,3.65.86,6.35-.85,10.33-4-12.71-5-25.07-11.42-35.77-.9.09-.4,1.13-.56,1.8-.2.87.48,2.23-.84,2.49a2.67,2.67,0,0,1-2.8-1.69,16.57,16.57,0,0,1-1.5-7.74c0-.26,2.08-4.65-1.89-1.71-1.16.86-1.15-1.16-1.37-1.89a23.78,23.78,0,0,1-.24-10.81c.16-1,.7-1.93-.66-2.53-1.74,1,.42,4.8-2.45,4.31-1.93-.32-2-3.25-2.17-5.14-.27-3.3-.1-6.63-.11-9.95,1.09-2.71,2.86-5.16,3.09-8.2,2.26,11,8,20.44,12.83,30.31.91,5.07,5.11,8.63,6.25,13.6C233.91,506.89,235.39,508.84,238,510.15Z" transform="translate(-123.08 -172.06)"/><path class="cls-26" d="M234.05,234.26l3.92-1a4.59,4.59,0,0,1,0,1c-.38,2.14,1.16,5.85-1.33,6C234.38,240.43,234.26,236.65,234.05,234.26Z" transform="translate(-123.08 -172.06)"/><path class="cls-59" d="M247,580.11c.47,2.8,2.08,1.82,3.67,1.15,2.33-1,2.47-2.86,2.22-5-.16-1.35-2.79-3.74,1.76-3,1.86.29,1.4-2.87,1-4.59-.23-1-.74-1.95.25-2.7s1.49.2,2.1.69,1.25,1.31,2.11.62a1.64,1.64,0,0,0,0-2.63c-1.94-1.52-1-6-6.11-4.66-2.31.63-3.28-3.94-3.89-6.48-.65-2.76,1.85-3.68,3.95-4.18,2.88-.68,3.27,1.37,4.11,3.63,3.39,9,4.87,18.4,5.77,27.94.28,3-.61,5.78-.26,8.82.46,4.08,1.33,7.76,3.6,11.15a9.76,9.76,0,0,1,1.7,6.14,2.54,2.54,0,0,0,1.67,2.77,2,2,0,0,0,1.75-.4c.86-1,.33-2.11-.05-3.25A75.62,75.62,0,0,1,268.78,590c5.44,5.16,7.66,11,10.45,16.51.52,1,.66,2.36,1.41,3.13,1.12,1.15,2.66,2.71,4,2.66,1.82-.07,1.24-2.3,1.4-3.71.1-.79,0-2,1-2,2,.06,4.08.52,5.2,2.38,1.69,2.8,3.64,5.59,4.55,8.66.8,2.66,2,3.38,4.49,3.5,2.9.14,5.16.74,3.57,4.84-1.21,3.15,3,3.12,4.14,5.08a45.64,45.64,0,0,1-16.14-.89,20.65,20.65,0,0,0-7.79-.19c-1.53-3.55-5.1-4.61-8-6.32A70,70,0,0,1,251.67,599c-4.5-7.42-8.69-14.81-11.63-22.93,3.61-4.12,5.25-.3,7.32,1.81A2,2,0,0,1,247,580.11Z" transform="translate(-123.08 -172.06)"/><path class="cls-71" d="M247,578.12c-2.41-.39-3.64-4.84-7-2l-1-3c0-3.84.13-7.66,4-10,3.07,3,3.13,7.56,5.61,10.94C249.6,575.42,248.92,577.3,247,578.12Z" transform="translate(-123.08 -172.06)"/><path class="cls-94" d="M400.94,552.12c-.92-4.33-4.12-8.12-3.08-12.92A11,11,0,0,1,404,549c1.18,2.64,1,5.39.67,8.33C401.82,556.66,402.75,553.38,400.94,552.12Z" transform="translate(-123.08 -172.06)"/><path class="cls-95" d="M392,593.13c-.13-1.67-1.32-3.33-.07-5,1.46-2.63,1.89-5.54,2.48-8.43.34-1.7.55-3.68,2.46-4.64C397.36,581.64,397.15,588.05,392,593.13Z" transform="translate(-123.08 -172.06)"/><path class="cls-96" d="M404,549c-1.29-3.76-3.68-6.82-6.17-9.82a2.22,2.22,0,0,1,2.13-1.1l1.1,1c.83,2.89,3.51,4.87,4,7.94C405,547.83,404.84,548.61,404,549Z" transform="translate(-123.08 -172.06)"/><path class="cls-97" d="M247,578.12c.89-2,1.33-3.29-.81-5.49s-2.78-6.09-3.21-9.51q1-8.49,2-17c2.67-.34,1.85-2.46,2.06-4,1-.75,1.26-2.45,3-2.19,1.19.74,1.13,2.26,2,3.21-4.23,2.13-5.07,5.18-4.38,10,1.08,7.58,0,15.39,3,22.81,1,2.37-1.26,3.79-3.65,4.19C247,579.44,247,578.78,247,578.12Z" transform="translate(-123.08 -172.06)"/><path class="cls-98" d="M208.14,389.05l1.72-1.08c.75,5.92-2.06,11.45-1.9,17.31-2.67-4.73-1.46-10-2.08-15,2.37-.74,1.11,1.78,2,2.25C207.5,391.39,207.07,390.18,208.14,389.05Z" transform="translate(-123.08 -172.06)"/><path class="cls-99" d="M206.34,410.38c1.46,2.29,2.21,4,1.26,6.07C205.82,414.89,205.67,413.08,206.34,410.38Z" transform="translate(-123.08 -172.06)"/><path class="cls-100" d="M208.14,389.05l-.32,2.9-1.94-1.66a40.39,40.39,0,0,0-8.72-11.36c-1.39-.21-3,.66-4.18-.66.06-.67.11-1.33.17-2,5.38-.45,10.63,3.39,13.8,10.09C207.36,387.25,207.74,388.16,208.14,389.05Z" transform="translate(-123.08 -172.06)"/><path class="cls-101" d="M193,378.27c1.43,0,3-.73,4.18.66-1.53.44-2,2.66-3.75,2.39C193.12,381.28,193.12,379.34,193,378.27Z" transform="translate(-123.08 -172.06)"/><path class="cls-102" d="M387.94,540.13c0-2.18-.55-4.51,2-6.5v6.53Z" transform="translate(-123.08 -172.06)"/><path class="cls-103" d="M346.94,563.14c-2.61-.39-3.68.67-4.34,3.34-.9,3.64-.14,7.64-2.33,11-1.57,0-1.21-1.27-1.29-2.14-.11-1.38-.36-3-1.53-3.5-1.82-.74-1.76,1.43-2.51,2.34-1.43,1.73-4.85.65-7.67-2.63-1-1.22-1.52-3-4-3,.89,4.8-2.2,9.08-1.36,13.89.16.91.11,2.25-1.3,2.15-1.11-.08-1.55-1.17-1.6-2.23a12.2,12.2,0,0,0-2-6.55c-.74-1.08-1.91-2.18-3.33-1.17-1.08.78-.75,2.09-.24,3.19.91,1.94,1.87,3.86,2.76,5.81.44,1,1.42,2.34-.15,2.93-1.39.52-1.87-1-2.32-2.06a24.92,24.92,0,0,1-.81-2.84c-.82-2.78-.79-2.73-3.05-.91-1.78,1.44-2.3-.52-2.7-1.4-1.5-3.32-4.28-4.94-7.43-6.17-2.91-1.13-5.63-1.87-5.89,2.77a2.81,2.81,0,0,1-1.85,2.19,3,3,0,0,1-.95-1.31c-1.09-6.75-1.19-13.64-2.78-20.32.91-1.9,3.13-3.08,3.11-5.53,1.2-2.19,2-4.68,4.11-6.25,2.49-.31,5.84-3.24,6.48,2.12,3.38-.71,6.14,1.3,9.19,2.09.92.73.64,2.15,1.68,2.95a3.66,3.66,0,0,0-2.17-3.45,5.84,5.84,0,0,1-2.25-1.9c-.93-1.24-1.83-2.71-.57-4s2.43.09,3.43.81a37,37,0,0,0,7.6,4.5c.34-4.54,1.92-5.59,4.94-3.29,1.74,1.34,4.76,2.23,6.54,3.87,3.36-.93-.33-2.33.23-3.44a3.43,3.43,0,0,1,2.51-3.18c2.4.26,3,2.18,3.74,4,.39,1.31.54,2.74,1.82,3.61C345.63,551.17,348.7,556.29,346.94,563.14Z" transform="translate(-123.08 -172.06)"/><path class="cls-104" d="M276.09,517.2,277,516c6.29-1.6,12.67-2,19.14-2.43,10.75-.62,21.48-.93,32.22-.87,3.8.09,7.61-.09,11.4-.08,2.44,1,2.44,1,.7,3.23,1.77.49,3.76.31,5.35,1.56.08,1.4,1,1.76,2.21,1.82.93,4.38-2.46,5.81-5.33,7.06-6.55,2.85-13.38,4.77-20.67,4.14-6.27.27-12.46-1.16-18.73-1-9.37.63-17.44-2.6-24.69-8.31C277.25,520.12,276,519.1,276.09,517.2Z" transform="translate(-123.08 -172.06)"/><path class="cls-105" d="M352.79,527.2c1.27.68,1.23,1.88,1.21,3-.2,8.37,3.5,15,9.25,20.7,6.34,6.34,7.47,15.46,2.28,22.53.39-7.63.61-15.22-4.59-21.55,1.09,7.69-3.82,15.8,3,23.26,2.77,3-.44,7.59-2.17,11.75-1.65-2.94.67-5,.2-7.25-.28-1.33-.19-2.92-1.81-3.14s-3.18.63-3.13,2.43c.11,3.48-3.9,7.12.42,10.5.8.63.46,1.9-.24,2.74-1.83,2.19-2.68,4.46-1.41,7.32.46,1,.13,2.74-1.2,2.85s-2.37-1-2-2.71c1.54-6.24.8-12.39-.73-18.51-.31-1.24.85-3.66-1.42-3.4s-.77,2.33-.65,3.67a2.36,2.36,0,0,1-.69,1.9c-1.18-5.7-4.69-11-2.22-17.22,1.9-1,2.7,1.58,4.62,1.42-.63-3.33-1.11-6.59-.4-9.89.22-1,.09-2.24-.87-2.66-3.48-1.53-3.95-5.15-5.73-7.84-1.05-1.59-2.9-3.16-.86-5.21,1.81-1.81,3.83-1.71,6.22.12-.17-2.46-.05-4.56-1-6.54a8.87,8.87,0,0,1-.84-2.27C347.28,528.68,348.4,527.25,352.79,527.2Z" transform="translate(-123.08 -172.06)"/><path class="cls-106" d="M289,555.19a72.13,72.13,0,0,1,3,21.9c-1.67,1.27-2.34-.07-3-1.2-1.67-2.82-3.17-5.71-3.05-9-2.14-.11-1.89,1.18-2.08,2-.31,1.32-.49,2.83-2.3,2.6a3,3,0,0,1-2.47-2.78c-.5-2.58-.58-5.24-1.36-7.82-1.17.17-2,2.27-2.69,1.52-2.39-2.68-4.68-.59-7-.31l-1-2a9,9,0,0,0-2.58-5.1c-3.59-3.22-3.41-12.48.14-16,1.68-1.65,2.91-1.13,3.86.71a9.77,9.77,0,0,1,.65,5.89c1.38-2.44-.38-5.78,2.35-7.73,2.31.54,2.11-1.5,2.72-2.68s1.39-1.92,2.74-1.64c1.68.33,1.5,1.62,1.07,2.72-1.09,2.81.55,5.6,0,8.39-.57,1.95-.78,3.82,1.14,5.33,1-1.63-1.49-2.65-.6-4.17a2.48,2.48,0,0,1,1.52-1.48c2.47-.67,3.7.94,4.86,2.66a6.42,6.42,0,0,1,1,1.93c.39,1.46-.07,2.86-.27,4.28-.42,2.92,1.23,2.3,2.88,1.66Z" transform="translate(-123.08 -172.06)"/><path class="cls-107" d="M351.21,490l.94.85c.76,1.68,2.85,2.45,3.11,4.48-.71,2.31-2.39.95-4.43,1,3.81,2.43,8.9,3.19,8.14,8.85-.43,2.09,1.8,4,.39,6.55-.68-1.25-1.26-2.22-1.76-3.22-1.43-2.85-3.5-4.29-6.89-4-5.55.54-10.31-.82-12.84-6.46-.34-.75-.86-1.66-1.8-1.47-2,.39.68,2.51-.83,3-6-2.4-3.95-7.69-4.57-12-.16-1.13-.51-2.23-.78-3.35.32-.46.67-.48,1-.05l0,0c1.19.95,2.67.13,3.93.67,1.16,2,1.16,5.52,5.1,3.94A33.69,33.69,0,0,0,351.21,490Z" transform="translate(-123.08 -172.06)"/><path class="cls-108" d="M293.14,483.31c1.95-2.49,1.66-4.45-.9-6.52a22.05,22.05,0,0,1-6.31-7.44c2-2.63,4.84-2.13,7.56-2.14a15.27,15.27,0,0,1,9.35,5.22c4.83,5.18,10.59,7,17.37,6.62,1.65.48,3.22,1,2.85,3.28-4.54,2.89-9.28,1.63-14,.69-3.44-.35-7.18-3.59-10.09,1.06C296.76,485.73,294.91,484.84,293.14,483.31Z" transform="translate(-123.08 -172.06)"/><path class="cls-109" d="M276.09,517.2c7.57,7,16.1,11.75,26.86,11-.77,3.4-4.12,1.64-5.92,3a78.44,78.44,0,0,1-12,2.31c-2.77-.15-5.53.23-8.3.27s-4.76-.74-6.19-3.05c-.78-1.79-1.46-3.59-.44-5.52C270,520.89,274,519.78,276.09,517.2Z" transform="translate(-123.08 -172.06)"/><path class="cls-110" d="M352.79,527.2v3.37c-2.24-.08-1-2.66-2.78-3.21-1.4,2.6-1.73,5.17,0,7.79-.35,4.42-.16,5.29-4.67,4.6-1.2-.18-.78,1.5-2.45,1.72-3.28-.33-4.87-2.81-6.09-5.3a7,7,0,0,0-5.65-4.27c-1.87-.6-3.81-.22-5.69-.5-1.45-.22-3.38.11-3.48-2.25,7.25.85,13.85-1.74,20.45-4.08a8.46,8.46,0,0,0,5.56-5.8C351.17,521,350.47,525,352.79,527.2Z" transform="translate(-123.08 -172.06)"/><path class="cls-111" d="M268,562.11c3.41-.52,1.08-3.75,2.5-5.25.26,0,.76-.2.84-.08,3.28,4.66,3.27,4.66,7.21,1,1.21,4.36.75,9,2.54,13.13,2.6-.78.72-2.14,1.17-3,.65-1.23.62-3.35,2.61-3.07s3.14,1.34,2.89,3.81c-.35,3.55,1.47,6.3,4.2,8.46l0,1c-.19,1.07.42,2.29-.69,3.29-1.94-1-1.2-4.57-3.8-4.63-2,0-1,2.48-2,3.55-2.23-.64-1.13-2.81-1.92-4.1s-1.17-3-2.7-3.38c-2.16-.58-1.32,2.33-3.42,3C275.67,570.43,270.12,567.55,268,562.11Z" transform="translate(-123.08 -172.06)"/><path class="cls-112" d="M343,541.1c.21-.62.47-1.24.62-1.88.32-1.3-1.55-3.37.62-3.82s1.47,2,2,3.22a2.14,2.14,0,0,0,1.41,1.18c1.5,0,.34-1.21.66-1.77.54-1,1.14-1.92,1.72-2.88,1.66,3,.84,6.28,1.72,9.32-2,.52-2.4-.71-3-1.68-1.23-2.12-2.79-1.36-4.22-.41-2.31,1.53-.26,2.53.63,3.44,2.61,2.65,1.92,8.07,7.16,8.54.21,0,.59,1,.46,1.32-1.85,4.86.11,9.78.08,15.56L347,566.12c0-1,0-2,0-3-.78-3.17-1.43-6.38-2.38-9.5-1.15-3.8-5.5-1.35-7.51-3.61.85-1.59,2.25-2.94,2.26-4.92a5.86,5.86,0,0,1,.25-1.3C340,542.09,341.53,541.63,343,541.1Z" transform="translate(-123.08 -172.06)"/><path class="cls-113" d="M293.14,483.31c2.05-.57,3.71,1.76,5.82.77.15,3.16-1.42,5.14-4,6.85-1.28.85-4.36,1.33-3.21,3.52,1,2,3.12-.32,4.79-.56-.93,4.27-1.56,4.66-8.55,5.25-1.61-2.59-1.61-2.59-1.13-6.57-4,3.62-8.61,4.37-13.22,5.11-3-.45-2.47-2.15-1.19-3.78a36.69,36.69,0,0,1,4.59-4.48c2.27-1.3,3.79-3.84,6.71-4.1a8.09,8.09,0,0,0,9.37-2Z" transform="translate(-123.08 -172.06)"/><path class="cls-114" d="M270.14,525.15c1,1.52.74,3.29.95,5,1.38,2.56,5,4.88.8,8-1.7,1.87-.53,4.16-.94,6.21s-1.1,4.15-3.71,5.3c.08-3.75,2.22-7.54-.89-11-3.73,3.86-4.35,8.68-3.83,13.13a1.52,1.52,0,0,0,1,1.38c3.26,1.31,3.47,4.1,3.41,7-3.41-4.39-7.65-8.25-9-14,2.87-4,1.89-8.6,2-13,5.46,1.46,9,.58,8.08-6.3C268,525.64,269.08,525.25,270.14,525.15Z" transform="translate(-123.08 -172.06)"/><path class="cls-115" d="M260,533.12c3.05,4.2,1,8.38-.07,12.56-.33,1.28-1.23.6-2,.46-.4-.24-.88-.77-1.17-.67-3.49,1.09-4.57.5-2.2-2.88.3-.43-.22-.77-.18-1.41-2.13-.28-1.69,1.08-2.44,2-2-.09-2-1.58-2-3-.81-2.33,1-4,1.57-5.94.49-1.65,1.8-3.24.22-5-.08-2.7,2-4,3.59-5.7a2.54,2.54,0,0,1,2.71-.33l-1.87,6.08C261.32,527,259.78,530.83,260,533.12Z" transform="translate(-123.08 -172.06)"/><path class="cls-116" d="M359,505.15c-.91-3.84-3.83-5.59-7.17-6.88-1.5-.59-3.73-1.15-2.94-3,.88-2.09,2.69-.82,4,.22a1.31,1.31,0,0,0,2.08-.31c.4-1,1-1.66,2.2-1.2l4.71,2.32c1,1.94,1.62,4.19,4.15,4.79,4.7,7.15,1.83,15.32,3.05,22.94a.83.83,0,0,1-.21,1.14c-1,.44-1,2.14-2.48,2.22a7.22,7.22,0,0,1-.28-5.28c2-6-.63-11.25-2.35-16.63C362.52,501.6,360.77,502.35,359,505.15Z" transform="translate(-123.08 -172.06)"/><path class="cls-117" d="M277,489.42c.36,2.5-1.56,3.31-3.13,4.52-1.13.88-3.23,2.26.1,3.21l.23.66c-.19,2-2,2.38-3.24,3.33-2.55,2.73-1.29,6.78-3.34,9.68-.6.85-.75,2.51-2.42,1.73-1-.47-1-1.5-1.07-2.56-.16-4.06,1.23-7.59,4.48-11.71-3.94,1.49-5.77,7.1-9.77,2.73,2.35-2,4.66-3.93,6.17-6.7.7-1.3,1.55-2.21,3.52-1.62C272.06,493.75,273.23,488.06,277,489.42Z" transform="translate(-123.08 -172.06)"/><path class="cls-118" d="M328.93,514.06c-13.12.39-26.23.86-39.35,1.12-4.22.08-8.23,3-12.59.86,3.31-3.43,6.48-7.2,12.1-4.75-.57,2.45-2.91.78-4,1.83,7.37-2,15.36-.39,22.58-3.64a15.87,15.87,0,0,1,3.25.78c5.08,1.1,10.25.05,15.33.66C327.53,511.08,331.61,510,328.93,514.06Z" transform="translate(-123.08 -172.06)"/><path class="cls-119" d="M296,509.16c-.18-.72-.89-1.75.4-1.94,3.44-.49,3.79-3.17,4.19-5.74.3-1.88-.08-4.92,2.21-4.68,2.72.27-.48,3,.55,4.54.28.42-.42,1.47-.79,2.6,5.59-1.88,2-7.35,4.18-10.4,1.78,1.08,1.05,2.91,1.91,4.08a7.68,7.68,0,0,1,.72,1.82c4.08-2.11,4.28,2.67,6.59,3.71-1.46,1.51-3.6,1.5-5.34,2.39-3.69,2-7.29,4.27-11.76,3.93A4.68,4.68,0,0,1,296,509.16Z" transform="translate(-123.08 -172.06)"/><path class="cls-120" d="M377.76,525.05l7.27-4.84c-1.37,8.43-7.16,15.37-8.06,24-1.93-4.12-2.36-8.75-4.41-12.83-.75-1.49.4-2.82.91-4.17C374.38,525.4,375.27,523.6,377.76,525.05Z" transform="translate(-123.08 -172.06)"/><path class="cls-120" d="M377,545.13c-3.57,3.4-2.72,8.13-3.23,12.45l-1.25.07c-1.18-5.23-2.39-10.44-3.5-15.68-.34-1.6-.28-3.29-.57-4.9-.21-1.14-.9-2.49.14-3.24,1.45-1,2.16,1.09,3.41,1.3C375.22,537.66,375,541.93,377,545.13Z" transform="translate(-123.08 -172.06)"/><path class="cls-121" d="M274,497.15c.57-.56,1.26-1.7,1.68-1.61,4.51,1,7.49-1.72,10.6-4.15.64-.5,1.28-1.27,2.12-.62a1.58,1.58,0,0,1,.09,2.26c-1.42,2-1.15,4-.51,6.11-.09,1.12.16,2.33-1.37,3.42-.78-2.11-1.08-4.65-4.34-4.45-3.43.22-3.78,3.11-5.27,5.05a5.57,5.57,0,0,1-3-6Z" transform="translate(-123.08 -172.06)"/><path class="cls-117" d="M258.07,523.15l-2.23.94c-1.76-1.4-1.7-3.12-.89-5,1.54-4.24,1.07-8.8,2-13.14.39-1.78.48-3.59,1.89-5a29.71,29.71,0,0,0,.88,14.1C260.54,517.91,259.37,520.63,258.07,523.15Z" transform="translate(-123.08 -172.06)"/><path class="cls-122" d="M296,509.16l2.1-.82c2,1.23,4,.84,6.07.31,2.25-.57,2.28-.46,3.62,1.66-3.94,2.31-8.21,2.92-12.71,2.9-3.73,0-7.5-.51-11.72,1.16,1.4-3.24,4.45-1.28,5.7-3.08a7.13,7.13,0,0,0,.91-.23c1.74-1.47,4.2-.64,6-1.89Z" transform="translate(-123.08 -172.06)"/><path class="cls-123" d="M309.87,504.28c2-.47,3.93-1.52,6.11-1.13,2.23.73,4.1,2.37,6.7-.24,1.3-1.3,3.92,1.06,6,1.89-1,2.29-2.8.67-4.19,1.38,1.43,2,4.3-.13,5.49,2-.82,1.35-1.71,2.6-3.53,2.58-5.28-1.35-9.79-5.07-15.55-5C310.22,505.76,309.89,505,309.87,504.28Z" transform="translate(-123.08 -172.06)"/><path class="cls-124" d="M377.76,525.05c-2.14-.19-2.9,1-2.84,2.93-1.25.65-2.44,1.51-4,1.21l-2.07-4,.21-1.14c.44-.47,1.06-1.42,1.3-1.34,5.58,2,7.7-2.54,10.66-5.49C382.93,521.06,377.66,521.94,377.76,525.05Z" transform="translate(-123.08 -172.06)"/><path class="cls-122" d="M326.83,510.23c1.12-.55,1.54-2.17,3.11-2.05,2.34,4.78,6.91,3.69,10.9,4.14.41.13.56.3.46.51s-.22.33-.34.33c-4.1-.88-8,1.41-12,.9,1.05-3.11-1.45-1.76-2.49-1.85-5.51-.47-11.12.82-16.56-.93,3.87-2.91,8.32-1.28,12.52-1.51C323.86,509.69,325.32,510.4,326.83,510.23Z" transform="translate(-123.08 -172.06)"/><path class="cls-116" d="M370.94,529.19a6.89,6.89,0,0,1,4-1.21c-1.87,1.48-1.82,3.14-.56,5A16.63,16.63,0,0,1,377,544.17c0,.32,0,.64,0,1-3.32-2.51-3.55-6.56-5-10C371.61,533.15,371.28,531.17,370.94,529.19Z" transform="translate(-123.08 -172.06)"/><path class="cls-125" d="M309.05,483a51.24,51.24,0,0,0,13.93-.86c.33-.42.66-.4,1,0-.37,1.35-2.19,2-1.64,3.87.38,1.29-.58,2.06-1.62,1.39C317.13,485.1,312.49,485.66,309.05,483Z" transform="translate(-123.08 -172.06)"/><path class="cls-126" d="M341,513.16q0-.42-.12-.84c2.4-1,4.54,2.26,7.1.4.47-.34.91.74.93,1.42,0,.91-.29,1.77-1.35,1.61a37.18,37.18,0,0,1-4-1.07c-.1,1.86,2.39,1.23,2.25,2.77-2.73-.81-5.84-.13-8.38-2.11.95-1.78,3.3.83,4-1.38a.69.69,0,0,0-.08-.46A1.56,1.56,0,0,0,341,513.16Z" transform="translate(-123.08 -172.06)"/><path class="cls-127" d="M324,482.16h-1a3.32,3.32,0,0,0-3.05-2.18c.07-1.9.9-2.69,2.79-1.93.72,1.91,2.44,2,4.08,2.27a5.41,5.41,0,0,1,4.13,3.86l-1,.05C327.22,485.52,326.76,480.54,324,482.16Z" transform="translate(-123.08 -172.06)"/><path class="cls-128" d="M323.6,498.6c-4.1-4.27-4.34-4.86-4-9.42C321.81,491.88,322.83,494.54,323.6,498.6Z" transform="translate(-123.08 -172.06)"/><path class="cls-113" d="M274,497.14c1.14,1.94,1.25,4.39,3,6-.1,1.42-.6,2.49-2.72,2.69,1.13-3.3.46-5.29-3.29-4.71Z" transform="translate(-123.08 -172.06)"/><path class="cls-119" d="M296,509.17c-1.36,2.68-3.83,1.83-6,1.89C291.29,508.19,293.47,508.12,296,509.17Z" transform="translate(-123.08 -172.06)"/><path class="cls-103" d="M297.3,579.48a1.82,1.82,0,0,1-1.1-2.4c.16-.53.84-1.32,1.23-1.29,1.17.08,1.55,1,1.42,2.13A1.53,1.53,0,0,1,297.3,579.48Z" transform="translate(-123.08 -172.06)"/><path class="cls-129" d="M423,407.65c.69-6.34,2.1-10.89,5.39-15.8C429.77,398.45,425.66,402,423,407.65Z" transform="translate(-123.08 -172.06)"/><path class="cls-130" d="M386.72,399.29a2.13,2.13,0,0,0,1.21-2.18c8.57,2.41,10.95,7.71,7,15.16-8.05,15.19-19.91,16.61-34.07,13.43-6.88-1.54-12.05-6.1-17.95-9.38-1.07-.59-2.05-2.13-1.36-3.42s2.06-.71,3.16-.29c6.62,2.52,13.28,4.91,20.3,6.09,9.87,1.66,18.9.16,26.17-7.32,2.13-2.18,3.67-4.66-1.33-5.24.11-1.25,2.79-2.71-.49-3.71A3.38,3.38,0,0,1,386.72,399.29Z" transform="translate(-123.08 -172.06)"/><path class="cls-131" d="M386.72,399.29a33.21,33.21,0,0,0,8.23,4.8c-1.62,2-4,.28-5.09,2.05-2.68,1.9-1.69-3-3.83-2.07-2.15-.07-3.31-2.19-5.31-2.56-2.7,5.3-2.68,5.74.33,6.59.49,0,1.11-.12,1.46.12,1.65,1.12-.25,1.25-.57,1.4-5.58,2.66-11.5,3.15-17.55,2.49-1.81-.19-3.59-.68-5.38-1-.42-.91.15-2-.59-2.86-1.93-1.77-.44-5.63-2.88-6.35s-4,2.5-6.42,3.23l-.95.31c-2.3.15-4,2.16-6.45,2-2.06-2.13.26-3.13,1.34-3.82C356.86,394.77,371.46,393.41,386.72,399.29Z" transform="translate(-123.08 -172.06)"/><path class="cls-132" d="M366.11,450.17c4,0,8.93,3.59,9.71,7,.83,3.69-.89,5.27-4.5,4.2a17.51,17.51,0,0,1-7.72-5.11c-1.19-1.26-3.21-2.31-2.28-4.49S364.36,450.27,366.11,450.17Z" transform="translate(-123.08 -172.06)"/><path class="cls-133" d="M381.93,395.19c-5,.7-9.82-.57-14.72-1-8.14-.67-15.58,2.18-23.15,4.62,4.43-4.46,9.84-6.38,16-6.79,6.67-.44,13.22.45,19.77,1.43C380.23,394.39,382,393.69,381.93,395.19Z" transform="translate(-123.08 -172.06)"/><path class="cls-134" d="M338,476.22c-2.21-.41-1.37-1.25-.21-2a18.71,18.71,0,0,0,5.85-5.83c2.64-4,2-8.54-1.66-12.26h0c.73-3.59,2.17-2,3.29-.34a18,18,0,0,1,2.7,10.33A16.36,16.36,0,0,1,338,476.22Z" transform="translate(-123.08 -172.06)"/><path class="cls-135" d="M381.05,408.1a5.34,5.34,0,0,1-4.64.72c.6-1.51,1.09-3,1.81-4.46.8-1.57-1-4.25,1.15-4.73s3.86,1.44,5.44,2.9a12.33,12.33,0,0,1,1.22,1.54c.53,1.53.59,2.81-1.53,3C383.28,407.18,381.94,406.89,381.05,408.1Z" transform="translate(-123.08 -172.06)"/><path class="cls-127" d="M335,485.19c-1.38-.16-3,.44-4-1l3-.11A60.31,60.31,0,0,1,351.21,490a11,11,0,0,1-11.35-.73C337.05,489.32,336.06,487.22,335,485.19Z" transform="translate(-123.08 -172.06)"/><path class="cls-136" d="M359.86,408.22c2.1,1.66-.63,1.88-.85,2.86-5.74-.57-11.08-3.52-17-2.91q-.12-.41-.27-.81a8.56,8.56,0,0,1,6.56-3C351.94,406.21,355.92,407.17,359.86,408.22Z" transform="translate(-123.08 -172.06)"/><path class="cls-127" d="M357.17,494l-2.2,1.2c-1.72-.95-3.16-2.08-2.82-4.36C355,490,356.63,491.12,357.17,494Z" transform="translate(-123.08 -172.06)"/><path class="cls-137" d="M366,501.09c-4.24.88-4.8-1.43-4.15-4.79C364.14,497.13,365.72,498.56,366,501.09Z" transform="translate(-123.08 -172.06)"/><path class="cls-138" d="M275.24,406.63c-6.34.35-12.74,1.89-18.9-1,1.65-2.5-2.08-2.46-2-4.23a11.39,11.39,0,0,1-.39-3.07c.3-2.64-.87-5.75,2.34-7.48,8.76-1.56,17.21-1.11,24.87,4.07.19.9-.39,1.25-1.09,1.51-2.22,0-3.69.75-3.73,3.3a8.73,8.73,0,0,1-1.42,4C274.43,404.76,275.73,405.6,275.24,406.63Z" transform="translate(-123.08 -172.06)"/><path class="cls-139" d="M246,386.1c.14-1,3.13-1.35.66-2.82-5.05-3-9.91-6.67-16.42-5.11a8.72,8.72,0,0,1-2.48-.12c5-2,10-.78,15.09-.59,8.35-1,16.54.24,24.66,2,1.66.36,3.7.62,4.52,2.65.26,2.41-1,3.26-3.22,3.21-5,1.87-10.13,0-15.22.68C251.2,386.29,248.5,388.31,246,386.1Z" transform="translate(-123.08 -172.06)"/><path class="cls-140" d="M322.72,478.05a3.33,3.33,0,0,0-2.79,1.93c-6.4,1.25-11.75-.74-16.22-5.32A27.49,27.49,0,0,0,294,468c-1.4-1.2-4,1.08-4.88-1.68,5.53-1.55,9.53,1.38,13.54,4.49,11.17,8.68,11.68,8.69,23.1.82,3.44-2.37,7-4.14,11.37-2.32C331.29,470.68,325.93,472.61,322.72,478.05Z" transform="translate(-123.08 -172.06)"/><path class="cls-141" d="M246,386.1a61.43,61.43,0,0,1,22.81-.79c5.39,1.91,11.41,2.45,15.42,7.57-7.05-3.45-14.21-6-22.25-5.88s-15.86.52-23.25,4.2c-.28-1.69,1-2.05,1.34-3Z" transform="translate(-123.08 -172.06)"/><path class="cls-142" d="M255,401.14c.1,1.39,6.52,1,1.08,3.94a31.81,31.81,0,0,1-8.79-5.1c-1.28-1-2.35-2.34-4.25-1.73-.93-.15-2.19.4-2.71-.59s.48-1.8,1.18-2.45c4.08-3.83,9.39-4.09,14.51-4.91-1.6,2.56-.57,5.48-1.17,8.18-1.47-.19-1.6-1.4-1.92-2.48s-1-1.7-2.13-1a1.59,1.59,0,0,0-.38,2.52C251.6,399.16,253.67,399.68,255,401.14Z" transform="translate(-123.08 -172.06)"/><path class="cls-143" d="M285,458.05c0-2.72,1.24-4.37,2.18-6.09.84-1.52,2.32-2.69,4-2.37,2.16.41,1.72,2.48,1.8,4.09.06,1.16-.2,2.43.2,3.45,1.46,3.73-1.26,4.5-3.66,4.84C286.45,462.4,285.1,460.37,285,458.05Z" transform="translate(-123.08 -172.06)"/><path class="cls-144" d="M272,382.1c-7.73-2.81-15.82-3.38-23.93-3.88-1.76-.11-3.67.62-5.25-.76,4.12-2.58,8.73-1.38,13-1.11,7.33.47,14.64,1.73,21.13,5.67Z" transform="translate(-123.08 -172.06)"/><path class="cls-145" d="M342,456.17c.16,1.3.26,2.62.49,3.91.35,2,1.81,4.63-1.71,5-2.72.25-5.51-.56-5.69-4.06-.11-2.06-.95-4.55,1-6.1,2.24-1.74,3.93.76,5.88,1.29Z" transform="translate(-123.08 -172.06)"/><path class="cls-146" d="M275,406.12c0-1.46-4.11-.06-2-2.95,3.73-.16,7.17-1.8,11.11-1.82-1.05-2.6-4.42-3-4.35-6l1.2-1c4.42,2,8.81,4.06,9.17,9.86C284.94,404.14,280,405.48,275,406.12Z" transform="translate(-123.08 -172.06)"/><path class="cls-147" d="M289.08,466.3c1.26,1.64,3.64,0,4.88,1.68a17.82,17.82,0,0,0-8,1.37,10.2,10.2,0,0,1-6.08-6.14c-.23-4.35-.19-8.64,3.12-12.07,1-.21,1.41.16,1.25,1.16-1.23,2.7-2.54,5.33-2.31,8.46C282.24,465.24,284.27,466.88,289.08,466.3Z" transform="translate(-123.08 -172.06)"/><path class="cls-148" d="M284.22,452.3,283,451.14a6.72,6.72,0,0,1,3.61-3.45C287.38,450.18,285.45,451.08,284.22,452.3Z" transform="translate(-123.08 -172.06)"/><path class="cls-149" d="M269.45,419.32c-13.12-.22-22.48-2.18-29.34-10.48a11.33,11.33,0,0,1-1.33-1.47c-.73-1.37-2.47-2.77-.77-4.37,1.45-1.38,3-.05,4,.86,2.38,2.21,5.3,3.38,8.09,4.82,7.7,4,15.79,4.59,24.14,2.62,4.79-1.12,9.87-1.1,14.38-3.42,1.39-.72,2.86-.52,3.53.68s-.9,2-1.7,2.62C283.34,416.6,275.41,419.52,269.45,419.32Z" transform="translate(-123.08 -172.06)"/><path class="cls-150" d="M265.87,443.18c3.39-.24,4.33,1,2.5,4.34-2.62,4.77-7.91,5.71-11.93,8.38-1.75,1.16-3.62-.64-3.07-3.41C254.47,446.85,259.35,443.07,265.87,443.18Z" transform="translate(-123.08 -172.06)"/><path class="cls-151" d="M255,519.12c.3,1.65.59,3.31.89,5q-2,2.43-4.06,4.87c-.15.45-.4.52-.76.19-2.52-1.34-1.58-3.9-2.09-5.94C252.09,523.54,253.33,521.05,255,519.12Z" transform="translate(-123.08 -172.06)"/><path class="cls-152" d="M238,510.15c-5.41.65-5.68.19-3.75-6.27C234.92,506.29,237.87,507.36,238,510.15Z" transform="translate(-123.08 -172.06)"/><path class="cls-108" d="M293.12,483.29c-2.21,4.91-5.66,4-9.37,2C287.09,485.64,290,484.1,293.12,483.29Z" transform="translate(-123.08 -172.06)"/><path class="cls-153" d="M244.18,521c-2.69-1-4.16-2.69-3.27-5.73C243.41,516.39,242.39,519.5,244.18,521Z" transform="translate(-123.08 -172.06)"/><path class="cls-71" d="M251,529.15a3.39,3.39,0,0,1,.76-.19c1.82.09,3.27.31,2,2.78-1.39,2.73-2.55,5.57-3.81,8.37-1,.63-1.38,2.18-2.94,2C246.45,537.2,246.83,532.59,251,529.15Z" transform="translate(-123.08 -172.06)"/><path class="cls-71" d="M254,582.41c.2-.71.51-1.8.81-2.89.39-1.43.64-3.17,2.52-3.16,2.32,0,2.08,2.33,2.46,3.68.89,3.2-3.46,3.77-3.69,6.56C253.71,586.25,254.15,584.39,254,582.41Z" transform="translate(-123.08 -172.06)"/><path class="cls-154" d="M333.05,542,331,545.1c-.44,1.28-.38,2.67-.92,3.92-3.25-1-7.12-.59-9.27-5.46-.69,2.85,1.3,5.05-.54,6-1.55.78-2.91-1.08-4.35-1.82a32.09,32.09,0,0,1-7.47-5.39c-.93,3.15,2,3.94,2.59,5.84a.57.57,0,0,1,.2.65c-.1.19-.19.29-.28.29a2.64,2.64,0,0,1-2.82.14c-2.6-1.69-5.11-1.93-7.85,1.3a11.74,11.74,0,0,1,0-2.84c1.25-3.53.54-4.3-2.64-2-.61.43-1.25,0-1.66-.57a2.22,2.22,0,0,1-.7-1.88c.89-3.27-2.77-4.66-3.07-7.45,1.81-4.25,6.68-6.66,12.84-5.67a71,71,0,0,0,12.43.53c3-.66,6,.18,9.05,0,1.4.52,2.91.35,4.35.62,6.33,1.19,7.13,3.11,3.79,9A6.43,6.43,0,0,1,333.05,542Z" transform="translate(-123.08 -172.06)"/><path class="cls-155" d="M296,543.14l0,2-3.9,6.09-.62-.11c-1.75-.38-3.42-.84-3.23-3.2a7.79,7.79,0,0,1,1.88-4.26,7.54,7.54,0,0,1,1.71-1.15C293.32,542,294.89,541,296,543.14Z" transform="translate(-123.08 -172.06)"/><path class="cls-71" d="M334.55,565a1.15,1.15,0,0,1-1.43,1c-2.8-.31-5.2-1.36-6-4.34-.26-1-.67-2.52.79-3,1.19-.4,1.78.74,2,1.71.33,1.73,1.95,1.58,3,2.31A3.21,3.21,0,0,1,334.55,565Z" transform="translate(-123.08 -172.06)"/><path class="cls-71" d="M312,563.89c2.7-1.74,4.63-2.72,6.49-.43.84,1,2.28,2.89.52,3.78C315.73,568.88,315.25,564.48,312,563.89Z" transform="translate(-123.08 -172.06)"/><path class="cls-156" d="M333.05,542l-.08-1.86c4-1.52,5.63.94,6.95,4l.05,1c-.59,3.29-2,3.35-4,1C335,544.73,334.89,542.77,333.05,542Z" transform="translate(-123.08 -172.06)"/><path class="cls-157" d="M310.93,549.11a4.22,4.22,0,0,0,.08-.94,2.75,2.75,0,0,1,2.8,1.61c.55,1.13,1.52,2.31.31,3.57-.42.45-1.23,1.13-1.51,1-1.27-.64-1.53-2-1.62-3.28C310.94,550.42,311,549.76,310.93,549.11Z" transform="translate(-123.08 -172.06)"/><path class="cls-158" d="M330.05,549c-.75-1.56-2.36-3.31.92-3.92,1.49,1.15,3.94,1.92,2.19,4.54C331.79,551.67,331.13,549.07,330.05,549Z" transform="translate(-123.08 -172.06)"/><path class="cls-159" d="M336,546.14c1.67,1,3.12,1.11,4-1,1.38,3-1,3.85-2.92,4.9A5.87,5.87,0,0,1,336,546.14Z" transform="translate(-123.08 -172.06)"/><path class="cls-155" d="M292.09,551.22c-.94,1.39,1.92,5.7-3.06,4l-.12-.17c-1.34-3.14.31-4,3-3.92Z" transform="translate(-123.08 -172.06)"/><path class="cls-160" d="M327,531.23a21.21,21.21,0,0,0-8.95.88c-7-.71-14-1-21-1.92,1.45-2.23,4.43,0,5.95-2l19.05,1c3,2.5,7-.56,10,2A6.4,6.4,0,0,1,327,531.23Z" transform="translate(-123.08 -172.06)"/><path class="cls-161" d="M271.89,538.1c2.25-2.91-.52-5.32-.8-8,2.62,2.51,5.36,3.95,9.15,2.24,1.35-.61,3.19-.14,4.81-.17.09,2-1.72,1.78-2.78,2.42-.11.1-.38.24-.37.27.65,1.61,4.67,0,3.37,3.19-1.1,2.73-.69,6.88-5.32,7l-1,1c-1.15.63-2.08.81-2-1,.82-3.59-3.19-7.13,1.36-11.11-4.48.61-2.88,3.54-4.07,4.88-.52.58-.79,1.73-1.66,1.41C272.14,540.12,272.1,538.87,271.89,538.1Z" transform="translate(-123.08 -172.06)"/><path class="cls-162" d="M280,545.08c3.76-1.2,2.46-5.51,4.68-7.75.54-.56-.67-1.18-1.59-1-1.19.28-1.1,2.12-2.82,2.06-.36-1.82-1-3.64.85-5.18,4.79.76,9.4,1.81,11.55,7a2.89,2.89,0,0,1-.62,2.93l-1.27.84c-3.75-1.2-5.11,1.5-6.57,4C282.7,547.11,282.52,544.38,280,545.08Z" transform="translate(-123.08 -172.06)"/><path class="cls-163" d="M292,551.1c-1.72.76-3.3,1.64-3,3.93-1.27.75-1.38,3.54-3.51,2.53-1.93-.91-1.45-3-1.14-4.78.22-1.26.55-2.5.83-3.75a3.3,3.3,0,0,1,3.88-.93C288.3,550.76,292.29,548.78,292,551.1Z" transform="translate(-123.08 -172.06)"/><path class="cls-164" d="M289,548.1a5.26,5.26,0,0,1-3.88.93l-.93-1c-.45-2.24-.18-4,2.3-5.07,1.85-.78,3.32-1.28,4.28,1Z" transform="translate(-123.08 -172.06)"/><path class="cls-165" d="M277,545.11a2.2,2.2,0,0,0,2,1c-.41,2.25,4.57,1.95,2.38,5a2,2,0,0,1-3.05.5C276.55,549.79,274.91,547.78,277,545.11Z" transform="translate(-123.08 -172.06)"/><path class="cls-166" d="M335,485.19l4.86,4.05c-.74,1.17-1.38,4.25-2.79.75C336.42,488.39,330.66,488.75,335,485.19Z" transform="translate(-123.08 -172.06)"/><path class="cls-71" d="M343.46,499.81c-2.56-.62-3.55-2-4.54-4.52C341.63,496,343,497,343.46,499.81Z" transform="translate(-123.08 -172.06)"/><path class="cls-167" d="M292,540.12c-3.08-2.27-5.29-6.19-10.08-5.31-.18,0-.55-1-.84-1.57,1.3-.46,2.95.39,4-1.06l11.95-2a109.73,109.73,0,0,1,21,1.92c-4.6-.12-9.16.24-13.79-.78-5.5-1.21-10.27,1.62-11.21,5.79C293.72,538.48,294.27,539.78,292,540.12Z" transform="translate(-123.08 -172.06)"/><path class="cls-159" d="M327,531.23l5-.12c2.8.25,4.93,1,5.73,4.32.61,2.55,3.11,4.11,5.23,5.67l-3,3c-2.39-1.21-3.52-4.6-6.95-4,1.67-1.61,3.42-3.65,2.62-5.84s-3.42-2-5.49-2.09C329,532.14,327.81,532.18,327,531.23Z" transform="translate(-123.08 -172.06)"/><path class="cls-168" d="M326.83,510.23c-5.54,2.07-11.33.26-16.95,1a2.27,2.27,0,0,1-2.07-1c-1.23-2-2.76-.87-4.35-.61-1.87.31-4.29,1.85-5.34-1.36a18.14,18.14,0,0,0,11.75-4.06c.42.24.9.77,1.26.7C317.37,503.78,321.87,507.68,326.83,510.23Z" transform="translate(-123.08 -172.06)"/><path class="cls-169" d="M359.86,408.22c-4.43.43-8.68.29-11.58-3.88,3.12-1.59,5.46-4.73,9.51-4.83C358.09,402.52,357.21,405.82,359.86,408.22Z" transform="translate(-123.08 -172.06)"/><path class="cls-170" d="M366.88,403c-1.15,1.5-2.39,2.33-3.94.48-.67-.81-1.07-1.71-.24-2.62,1.61-1.75,2.89-.6,4.15.54C367.55,402,367.54,402.49,366.88,403Z" transform="translate(-123.08 -172.06)"/><path class="cls-171" d="M366.88,403l0-1.6c1.54.11,3.17-1.32,4.59.28a.93.93,0,0,1,.09.89C370.11,404,368.44,402.94,366.88,403Z" transform="translate(-123.08 -172.06)"/><path class="cls-172" d="M265.76,404.12c-4.28.66-5.94-2.88-8.45-4.81a3.73,3.73,0,0,1-.92-4.57,1.69,1.69,0,0,1,2.41-1.05c1.75.84,4,1.83,3.44,4.08-1,3.84,1.91,2.18,3.11,2.34s3.88.6,2.12-2.37a1.23,1.23,0,0,1,.74-2c1.05-.37,1.42.6,1.77,1.31.75,1.49,1.52,3,.58,4.71A4.27,4.27,0,0,1,265.76,404.12Z" transform="translate(-123.08 -172.06)"/><path class="cls-173" d="M279.69,395.4c1.88,2.6,5.56,3.46,6.95,7.42-4.86-1.55-9.08,2.41-13.71.35,1.44-1.23,2.46-2.75,2.15-4.7C274.36,394,276.42,393.83,279.69,395.4Z" transform="translate(-123.08 -172.06)"/><path class="cls-174" d="M255,401.14a4.79,4.79,0,0,1-1.93-.2c-2.06-1.22-5.35-1.72-5.07-4.77s3.77-2.35,5.56-3.94c1.24,2.33-.2,4.56,1.29,6.25Z" transform="translate(-123.08 -172.06)"/><path class="cls-103" d="M292,540.12c1.18-.72,1-1.91,1-3,2.43,1.29,4.93,2.56,2.95,6-1.32-1-2.64,0-4,0C292,542.13,292,541.12,292,540.12Z" transform="translate(-123.08 -172.06)"/><path class="cls-170" d="M263.1,398.45c-1.11.65-1.6.64-1.94.23-.68-.8-.94-1.23-.56-1.95a1.57,1.57,0,0,1,2.89.61C263.45,398.31,263.2,398.33,263.1,398.45Z" transform="translate(-123.08 -172.06)"/><path class="cls-170" d="M269.76,398.08a1.73,1.73,0,0,1-2.85.19,1.28,1.28,0,0,1-.1-1.72c.95-1,1.71-.36,2.46.32C269.68,397.18,270.15,397.76,269.76,398.08Z" transform="translate(-123.08 -172.06)"/><path class="cls-2" d="M283.34,229.23s-21.9,8.71-30.07,25.27-1.54,38.93-1.54,38.93a41.69,41.69,0,0,1,7.66-27.22c9.45-13,24.08-22.12,26-20.14S283.34,229.23,283.34,229.23Z" transform="translate(-123.08 -172.06)"/><path class="cls-2" d="M300,218.6s-21.9,8.72-30.07,25.28-1.53,38.92-1.53,38.92A41.62,41.62,0,0,1,276,255.58c9.44-13,24.07-22.12,26-20.14S300,218.6,300,218.6Z" transform="translate(-123.08 -172.06)"/><path class="cls-2" d="M388.21,237.42s19.52,13.23,23.93,31.16-6.89,38.34-6.89,38.34a41.65,41.65,0,0,0-1.62-28.23c-6.42-14.75-18.74-26.79-21.07-25.27S388.21,237.42,388.21,237.42Z" transform="translate(-123.08 -172.06)"/><path class="cls-2" d="M249.83,239.64s-6.36,21.73-2.32,60,29.81,102.38,29.81,102.38-22.16-61.33-26.15-86.61.15-45.43,3.58-59.5,5.76-20.83,5.76-20.83Z" transform="translate(-123.08 -172.06)"/><path class="cls-87" d="M229.81,427.09" transform="translate(-123.08 -172.06)"/><path class="cls-33" d="M256.24,259.11a31.22,31.22,0,0,0-5.68,12.75,36.76,36.76,0,0,0-.48,10.67s.8-10.13,5.95-17.57a26.83,26.83,0,0,1,5.07-5.87.89.89,0,0,0,.1-1.29,2.33,2.33,0,0,0-1.45-.81C258.35,256.79,256.24,259.11,256.24,259.11Z" transform="translate(-123.08 -172.06)"/></svg>